<svg width="48" height="48" viewBox="0 0 48 48" fill="none" xmlns="http://www.w3.org/2000/svg">
<path d="M34.8563 16.1438C35.8782 17.1657 35.8782 18.8345 34.8563 19.8563L22.8563 31.8563C21.8345 32.8782 20.1657 32.8782 19.1438 31.8563L13.1438 25.8563C12.122 24.8345 12.122 23.1657 13.1438 22.1438C14.1657 21.122 15.8345 21.122 16.8563 22.1438L21.0001 26.2876L31.1438 16.1438C32.1657 15.122 33.8345 15.122 34.8563 16.1438Z" fill="#FF4545"/>
<path d="M0 24C0 10.7438 10.7438 0 24 0C37.2562 0 48 10.7438 48 24C48 37.2562 37.2562 48 24 48C10.7438 48 0 37.2562 0 24ZM34.8562 19.8563C35.8781 18.8344 35.8781 17.1656 34.8562 16.1437C33.8344 15.1219 32.1656 15.1219 31.1438 16.1437L21 26.2875L16.8563 22.1437C15.8344 21.1219 14.1656 21.1219 13.1437 22.1437C12.1219 23.1656 12.1219 24.8344 13.1437 25.8562L19.1437 31.8562C20.1656 32.8781 21.8344 32.8781 22.8563 31.8562L34.8562 19.8563Z" fill="#2E2640"/>
</svg>
