<svg width="48" height="48" viewBox="0 0 48 48" fill="none" xmlns="http://www.w3.org/2000/svg">
<path d="M24.0002 28.5C25.2424 28.5 26.2502 27.4922 26.2502 26.25V14.25C26.2502 13.0125 25.2471 12 24.0002 12C22.7534 12 21.7502 13.0125 21.7502 14.25V26.25C21.7502 27.4969 22.7627 28.5 24.0002 28.5ZM24.0002 31.6031C22.3727 31.6031 21.0527 32.9231 21.0527 34.5506C21.0565 36.1781 22.369 37.5 24.0002 37.5C25.6315 37.5 26.9477 36.18 26.9477 34.5525C26.944 32.925 25.6315 31.6031 24.0002 31.6031Z" fill="#FF4545"/>
<path d="M24 0C10.7438 0 0 10.7438 0 24C0 37.2562 10.7438 48 24 48C37.2562 48 48 37.2562 48 24C48 10.7438 37.2562 0 24 0ZM21.75 14.25C21.75 13.0125 22.7625 12 24 12C25.2375 12 26.25 13.0078 26.25 14.25V26.25C26.25 27.4922 25.2422 28.5 24 28.5C22.7578 28.5 21.75 27.4969 21.75 26.25V14.25ZM24 37.5C22.3725 37.5 21.0525 36.18 21.0525 34.5525C21.0525 32.925 22.3716 31.605 24 31.605C25.6284 31.605 26.9475 32.925 26.9475 34.5525C26.9438 36.1781 25.6313 37.5 24 37.5Z" fill="#2E2640"/>
</svg>
