<svg width="48" height="48" viewBox="0 0 48 48" fill="none" xmlns="http://www.w3.org/2000/svg">
<path d="M33.7033 12.5343C32.7555 11.7301 31.3333 11.8502 30.5317 12.7994L24.0002 20.5124L17.4658 12.7968C16.6689 11.8499 15.2439 11.728 14.297 12.5343C13.3502 13.3312 13.2283 14.7562 14.0345 15.7031L21.0564 23.9999L14.0364 32.2968C13.2337 33.2446 13.3523 34.6659 14.3015 35.4684C14.7189 35.8218 15.2345 35.9999 15.6658 35.9999C16.3044 35.9999 16.9399 35.7289 17.3852 35.2031L24.0002 27.4874L30.5317 35.2068C30.9752 35.7281 31.6127 35.9999 32.2502 35.9999C32.7629 35.9999 33.2795 35.8256 33.7014 35.4682C34.6502 34.6655 34.7692 33.2444 33.9665 32.2966L26.9439 23.9999L33.9639 15.7031C34.772 14.7562 34.6502 13.3312 33.7033 12.5343Z" fill="#FF4545"/>
<path d="M24 0C10.7438 0 0 10.7438 0 24C0 37.2562 10.7438 48 24 48C37.2562 48 48 37.2562 48 24C48 10.7438 37.2562 0 24 0ZM33.9656 32.2969C34.7683 33.2447 34.6497 34.6659 33.7005 35.4684C33.2812 35.8219 32.7656 36 32.25 36C31.6114 36 30.9759 35.729 30.5306 35.2031L24 27.4875L17.4656 35.2031C17.025 35.7281 16.3875 36 15.6656 36C15.2344 36 14.7188 35.8219 14.2969 35.4656C13.3481 34.6629 13.2291 33.2419 14.0317 32.2941L21.0563 24L14.0344 15.7031C13.2281 14.7563 13.35 13.3312 14.2969 12.5344C15.2437 11.7281 16.6688 11.85 17.4656 12.7969L24 20.5125L30.5316 12.7931C31.3328 11.8444 32.7553 11.7234 33.7031 12.528C34.6519 13.3307 34.7709 14.7518 33.9683 15.6996L26.9437 24L33.9656 32.2969Z" fill="#2E2640"/>
</svg>
