<svg width="49" height="48" viewBox="0 0 49 48" fill="none" xmlns="http://www.w3.org/2000/svg">
<path d="M24.9863 15C15.8691 15 8.48633 22.3828 8.48633 31.5C8.48633 40.6172 15.8738 48 24.9863 48C34.0988 48 41.4863 40.6172 41.4863 31.5C41.4863 22.3828 34.1082 15 24.9863 15ZM33.6582 29.7469L30.107 33.2156L30.939 38.1141C31.0913 38.9812 30.1655 39.6609 29.3799 39.2391L24.9849 36.9309L20.5895 39.2344C19.8043 39.6562 18.8785 38.9766 19.0304 38.1094L19.8624 33.2109L16.3112 29.7422C15.6676 29.1187 16.0332 28.0313 16.9145 27.9L21.8251 27.1852L24.0207 22.7344C24.2082 22.3359 24.5949 22.1367 24.9816 22.1367C25.3684 22.1367 25.7551 22.3406 25.9426 22.7344L28.1457 27.1875L33.0563 27.9023C33.9488 28.0312 34.3051 29.1187 33.6582 29.7469Z" fill="white"/>
<path d="M13.765 0H2.48969C1.27562 0 0.564999 1.36687 1.26156 2.36063L13.4772 19.6856C16.1716 17.0616 19.7584 15.3609 23.7428 15.0637L14.965 0.728437C14.7775 0.276469 14.29 0 13.765 0ZM47.4025 0H36.2087C35.6818 0 35.1934 0.276469 34.9225 0.728437L26.2244 15.0656C30.2087 15.3626 33.7956 17.0634 36.49 19.6875L48.7056 2.3625C49.4087 1.36688 48.6962 0 47.4025 0Z" fill="#FF4545"/>
</svg>
