<svg width="49" height="45" viewBox="0 0 49 45" fill="none" xmlns="http://www.w3.org/2000/svg">
<path d="M44.4819 9H36.9819V4.5C36.9819 2.10094 34.8819 0 32.4819 0H17.4819C15.0819 0 12.9819 2.10094 12.9819 4.5V9H5.48193C3.08287 9 0.981934 11.1 0.981934 13.5V27H48.9819V13.5C48.9819 11.1 46.8819 9 44.4819 9ZM32.4819 9H17.4819V4.5H32.4819V9Z" fill="#FF4545"/>
<path d="M30.9819 31.5C30.9819 32.3291 30.3111 33 29.4819 33H20.4819C19.6569 33 18.9819 32.325 18.9819 31.5V27H0.981934V40.5C0.981934 42.9 3.08287 45 5.48193 45H44.4819C46.881 45 48.9819 42.8991 48.9819 40.5V27H30.9819V31.5Z" fill="white"/>
</svg>
