<svg width="49" height="39" viewBox="0 0 49 39" fill="none" xmlns="http://www.w3.org/2000/svg">
<path d="M12.9819 24.6001C16.9584 24.6001 20.1819 21.3766 20.1819 17.4001C20.1819 13.4236 16.9584 10.2001 12.9819 10.2001C8.93943 10.2001 5.78193 13.3576 5.78193 17.4001C5.78193 21.3751 8.93943 24.6001 12.9819 24.6001ZM15.3819 27.0001H10.5819C5.28018 27.0001 0.981934 31.2984 0.981934 36.6001C0.981934 37.9254 2.05668 39.0001 3.38193 39.0001H22.5819C23.9072 39.0001 24.9819 37.9254 24.9819 36.6001C24.9819 31.2976 20.6844 27.0001 15.3819 27.0001ZM17.7819 5.40015V9.1359C20.6394 10.8001 22.5819 13.8601 22.5819 17.4001C22.5819 20.5359 21.0714 23.2576 18.7389 25.0801C20.1294 25.4851 21.3969 26.1526 22.5294 27.0001H29.7812V23.4001C29.7812 22.7373 30.3185 22.2001 30.9812 22.2001H38.1812C38.8439 22.2001 39.3812 22.7373 39.3812 23.4001V27.0001H44.1812V5.40015H17.7819Z" fill="#2E2640"/>
<path d="M45.3819 0.600098H16.5819C14.5944 0.600098 12.9819 2.26885 12.9819 4.32235V7.8001C14.7384 7.8001 16.3644 8.30867 17.7144 9.13585V5.4001H44.1144V27.0001H22.5294C24.1847 28.2361 25.4949 29.8876 26.3364 31.8001H45.3789C47.3694 31.8001 48.9819 30.1351 48.9819 28.0801V4.32235C48.9819 2.26885 47.3694 0.600098 45.3819 0.600098Z" fill="#FF4545"/>
</svg>
