<svg width="49" height="39" viewBox="0 0 49 39" fill="none" xmlns="http://www.w3.org/2000/svg">
<path d="M12.9819 24.2C16.9584 24.2 20.1819 20.9765 20.1819 17C20.1819 13.0235 16.9584 9.8 12.9819 9.8C8.93943 9.8 5.78193 12.9575 5.78193 17C5.78193 20.975 8.93943 24.2 12.9819 24.2ZM15.3819 26.6H10.5819C5.28018 26.6 0.981934 30.8983 0.981934 36.2C0.981934 37.5252 2.05668 38.6 3.38193 38.6H22.5819C23.9072 38.6 24.9819 37.5252 24.9819 36.2C24.9819 30.8975 20.6844 26.6 15.3819 26.6ZM17.7819 5V8.73575C20.6394 10.4 22.5819 13.46 22.5819 17C22.5819 20.1358 21.0714 22.8575 18.7389 24.68C20.1294 25.085 21.3969 25.7525 22.5294 26.6H29.7812V23C29.7812 22.3372 30.3185 21.8 30.9812 21.8H38.1812C38.8439 21.8 39.3812 22.3372 39.3812 23V26.6H44.1812V5H17.7819Z" fill="white"/>
<path d="M45.3819 0.199951H16.5819C14.5944 0.199951 12.9819 1.8687 12.9819 3.9222V7.39995C14.7384 7.39995 16.3644 7.90853 17.7144 8.7357V4.99995H44.1144V26.6H22.5294C24.1847 27.836 25.4949 29.4875 26.3364 31.4H45.3789C47.3694 31.4 48.9819 29.735 48.9819 27.68V3.9222C48.9819 1.8687 47.3694 0.199951 45.3819 0.199951Z" fill="#FF4545"/>
</svg>
