<svg xmlns="http://www.w3.org/2000/svg" width="10" height="10" viewBox="0 0 21 21" fill="none">
<path d="M9.6702 20.6574C10.1272 21.1142 10.8661 21.1142 11.3183 20.6574L20.6573 11.3262C21.1142 10.8694 21.1142 10.1306 20.6573 9.67866C20.2003 9.22668 19.4613 9.22182 19.0092 9.67866L10.5015 18.1836L1.98898 9.6738C1.53199 9.21696 0.793041 9.21696 0.340918 9.6738C-0.111204 10.1306 -0.116066 10.8694 0.340918 11.3213L9.6702 20.6574ZM0.336056 1.99503L9.6702 11.3262C10.1272 11.783 10.8661 11.783 11.3183 11.3262L20.6573 1.99503C21.1142 1.53819 21.1142 0.799469 20.6573 0.34749C20.2003 -0.104488 19.4613 -0.109348 19.0092 0.34749L10.5015 8.85246L1.98898 0.34263C1.53199 -0.11421 0.793041 -0.11421 0.340918 0.34263C-0.111204 0.799469 -0.116066 1.53819 0.340918 1.99016L0.336056 1.99503Z" fill="#B3B3C3"/>
</svg>