<svg width="49" height="39" viewBox="0 0 49 39" fill="none" xmlns="http://www.w3.org/2000/svg">
<path d="M26.1819 10.9935V12.1935H27.3819C28.0419 12.1935 28.5819 12.7335 28.5819 13.3935C28.5819 14.0535 28.0419 14.5935 27.3819 14.5935H24.9819C24.3219 14.5935 23.7819 14.0535 23.7819 13.3935V10.9935C23.7819 10.3335 24.3219 9.79346 24.9819 9.79346C25.6419 9.79346 26.1819 10.3335 26.1819 10.9935ZM6.98193 15.7935C6.98193 15.1335 7.52193 14.5935 8.18193 14.5935H10.5819C11.2419 14.5935 11.7819 15.1335 11.7819 15.7935V20.5935C11.7819 21.2535 11.2419 21.7935 10.5819 21.7935H8.18193C7.52193 21.7935 6.98193 21.2535 6.98193 20.5935V15.7935ZM38.1819 15.7935C38.1819 15.1335 38.7219 14.5935 39.3819 14.5935H41.7819C42.4419 14.5935 42.9819 15.1335 42.9819 15.7935V20.5935C42.9819 21.2535 42.4419 21.7935 41.7819 21.7935H39.3819C38.7219 21.7935 38.1819 21.2535 38.1819 20.5935V15.7935ZM8.18193 24.1935H10.5819C11.2419 24.1935 11.7819 24.7335 11.7819 25.3935V30.1935C11.7819 30.8535 11.2419 31.3935 10.5819 31.3935H8.18193C7.52193 31.3935 6.98193 30.8535 6.98193 30.1935V25.3935C6.98193 24.7335 7.52193 24.1935 8.18193 24.1935ZM38.1819 25.3935C38.1819 24.7335 38.7219 24.1935 39.3819 24.1935H41.7819C42.4419 24.1935 42.9819 24.7335 42.9819 25.3935V30.1935C42.9819 30.8535 42.4419 31.3935 41.7819 31.3935H39.3819C38.7219 31.3935 38.1819 30.8535 38.1819 30.1935V25.3935Z" fill="#FF4545"/>
<path d="M26.3169 0.598359C25.5069 0.0583594 24.4569 0.0583594 23.6469 0.598359L13.4544 7.39336H4.58193C2.59443 7.39336 0.981934 9.00586 0.981934 10.9934V34.9934C0.981934 36.9809 2.59443 38.5934 4.58193 38.5934H45.3819C47.3694 38.5934 48.9819 36.9809 48.9819 34.9934V10.9934C48.9819 9.00586 47.3694 7.39336 45.3819 7.39336H36.5094L26.3169 0.598359ZM20.1819 31.3934C20.1819 28.7459 22.3344 26.5934 24.9819 26.5934C27.6294 26.5934 29.7819 28.7459 29.7819 31.3934V38.5934H20.1819V31.3934ZM8.18193 14.5934H10.5819C11.2419 14.5934 11.7819 15.1334 11.7819 15.7934V20.5934C11.7819 21.2534 11.2419 21.7934 10.5819 21.7934H8.18193C7.52193 21.7934 6.98193 21.2534 6.98193 20.5934V15.7934C6.98193 15.1334 7.52193 14.5934 8.18193 14.5934ZM38.1819 15.7934C38.1819 15.1334 38.7219 14.5934 39.3819 14.5934H41.7819C42.4419 14.5934 42.9819 15.1334 42.9819 15.7934V20.5934C42.9819 21.2534 42.4419 21.7934 41.7819 21.7934H39.3819C38.7219 21.7934 38.1819 21.2534 38.1819 20.5934V15.7934ZM8.18193 24.1934H10.5819C11.2419 24.1934 11.7819 24.7334 11.7819 25.3934V30.1934C11.7819 30.8534 11.2419 31.3934 10.5819 31.3934H8.18193C7.52193 31.3934 6.98193 30.8534 6.98193 30.1934V25.3934C6.98193 24.7334 7.52193 24.1934 8.18193 24.1934ZM38.1819 25.3934C38.1819 24.7334 38.7219 24.1934 39.3819 24.1934H41.7819C42.4419 24.1934 42.9819 24.7334 42.9819 25.3934V30.1934C42.9819 30.8534 42.4419 31.3934 41.7819 31.3934H39.3819C38.7219 31.3934 38.1819 30.8534 38.1819 30.1934V25.3934ZM24.9819 6.79336C26.7324 6.79336 28.4111 7.48872 29.6488 8.72645C30.8866 9.9642 31.5819 11.6429 31.5819 13.3934C31.5819 15.1438 30.8866 16.8225 29.6488 18.0603C28.4111 19.298 26.7324 19.9934 24.9819 19.9934C23.2315 19.9934 21.5528 19.298 20.315 18.0603C19.0773 16.8225 18.3819 15.1438 18.3819 13.3934C18.3819 11.6429 19.0773 9.9642 20.315 8.72645C21.5528 7.48872 23.2315 6.79336 24.9819 6.79336Z" fill="#2E2640"/>
</svg>
