<svg width="49" height="44" viewBox="0 0 49 44" fill="none" xmlns="http://www.w3.org/2000/svg">
<path d="M24.9816 0.82959H34.3149C35.0483 0.82959 35.6483 1.42659 35.6483 2.16292V6.16292C35.6483 6.89959 35.0483 7.49626 34.3149 7.49626H27.6483V8.79042L26.5316 7.99292C25.6066 7.33042 24.3566 7.33042 23.4316 7.99292L22.3149 8.79042V3.49626C22.3149 2.02376 23.5066 0.82959 24.9816 0.82959ZM6.31494 20.8296C6.31494 20.0963 6.91161 19.4963 7.64827 19.4963H10.3149C11.0483 19.4963 11.6483 20.0963 11.6483 20.8296V26.1629C11.6483 26.8963 11.0483 27.4963 10.3149 27.4963H7.64827C6.91161 27.4963 6.31494 26.8963 6.31494 26.1629V20.8296ZM38.3149 20.8296C38.3149 20.0963 38.9149 19.4963 39.6483 19.4963H42.3149C43.0483 19.4963 43.6483 20.0963 43.6483 20.8296V26.1629C43.6483 26.8963 43.0483 27.4963 42.3149 27.4963H39.6483C38.9149 27.4963 38.3149 26.8963 38.3149 26.1629V20.8296ZM10.3149 30.1629C11.0483 30.1629 11.6483 30.7629 11.6483 31.4963V36.8296C11.6483 37.5629 11.0483 38.1629 10.3149 38.1629H7.64827C6.91161 38.1629 6.31494 37.5629 6.31494 36.8296V31.4963C6.31494 30.7629 6.91161 30.1629 7.64827 30.1629H10.3149ZM38.3149 31.4963C38.3149 30.7629 38.9149 30.1629 39.6483 30.1629H42.3149C43.0483 30.1629 43.6483 30.7629 43.6483 31.4963V36.8296C43.6483 37.5629 43.0483 38.1629 42.3149 38.1629H39.6483C38.9149 38.1629 38.3149 37.5629 38.3149 36.8296V31.4963Z" fill="#FF4545"/>
<path d="M35.1736 14.163H43.6486C46.5903 14.163 48.9819 16.5546 48.9819 19.4963V38.163C48.9819 41.1046 46.5903 43.4963 43.6486 43.4963H28.9819V34.163C28.9819 31.9546 27.1903 30.163 24.9819 30.163C22.7736 30.163 20.9819 31.9546 20.9819 34.163V43.4963H6.31527C3.36943 43.4963 0.981934 41.1046 0.981934 38.163V19.4963C0.981934 16.5546 3.36943 14.163 6.31527 14.163H14.7903L23.4319 7.99297C24.3569 7.33047 25.6069 7.33047 26.5319 7.99297L35.1736 14.163ZM24.9819 16.8296C22.7736 16.8296 20.9819 18.6213 20.9819 20.8296C20.9819 23.038 22.7736 24.8296 24.9819 24.8296C27.1903 24.8296 28.9819 23.038 28.9819 20.8296C28.9819 18.6213 27.1903 16.8296 24.9819 16.8296ZM7.6486 19.4963C6.91193 19.4963 6.31527 20.0963 6.31527 20.8296V26.163C6.31527 26.8963 6.91193 27.4963 7.6486 27.4963H10.3153C11.0486 27.4963 11.6486 26.8963 11.6486 26.163V20.8296C11.6486 20.0963 11.0486 19.4963 10.3153 19.4963H7.6486ZM38.3153 26.163C38.3153 26.8963 38.9153 27.4963 39.6486 27.4963H42.3153C43.0486 27.4963 43.6486 26.8963 43.6486 26.163V20.8296C43.6486 20.0963 43.0486 19.4963 42.3153 19.4963H39.6486C38.9153 19.4963 38.3153 20.0963 38.3153 20.8296V26.163ZM7.6486 30.163C6.91193 30.163 6.31527 30.763 6.31527 31.4963V36.8296C6.31527 37.563 6.91193 38.163 7.6486 38.163H10.3153C11.0486 38.163 11.6486 37.563 11.6486 36.8296V31.4963C11.6486 30.763 11.0486 30.163 10.3153 30.163H7.6486ZM39.6486 30.163C38.9153 30.163 38.3153 30.763 38.3153 31.4963V36.8296C38.3153 37.563 38.9153 38.163 39.6486 38.163H42.3153C43.0486 38.163 43.6486 37.563 43.6486 36.8296V31.4963C43.6486 30.763 43.0486 30.163 42.3153 30.163H39.6486Z" fill="white"/>
</svg>
