<svg width="36" height="48" viewBox="0 0 36 48" fill="none" xmlns="http://www.w3.org/2000/svg">
<path d="M24 6C24 2.68594 21.3141 0 18 0C14.6859 0 12 2.68594 12 6C8.68594 6 6 8.68594 6 12V13.5C6 14.325 6.67125 15 7.5 15H28.5C29.325 15 30 14.325 30 13.5V12C30 8.68594 27.3094 6 24 6ZM18 8.25C16.7531 8.25 15.75 7.24219 15.75 6C15.75 4.75688 16.7578 3.75 18 3.75C19.2422 3.75 20.25 4.75688 20.25 6C20.25 7.24219 19.2469 8.25 18 8.25ZM22.9781 23.3625L16.1794 32.0138L12.7125 29.0437C11.7656 28.2375 10.35 28.3406 9.54375 29.2875C8.73516 30.2306 8.84353 31.6519 9.78694 32.46L15.0369 36.96C15.4406 37.2281 15.9656 37.5 16.4156 37.5C16.4889 37.5 16.5621 37.4971 16.6354 37.4883C17.2462 37.4297 17.8054 37.1221 18.1851 36.6387L26.4351 26.1387C27.2027 25.1628 27.0327 23.7481 26.0557 22.9803C25.1625 22.1344 23.7469 22.3875 22.9781 23.3625Z" fill="#FF4545"/>
<path d="M31.5 6H24C27.3141 6 30 8.68594 30 12V13.5C30 14.325 29.325 15 28.5 15H7.5C6.67125 15 6 14.325 6 13.5V12C6 8.68594 8.68594 6 12 6H4.5C2.01469 6 0 8.01469 0 10.5V43.5C0 45.9844 2.01469 48 4.5 48H31.5C33.9853 48 36 45.9853 36 43.5V10.5C36 8.01469 33.9844 6 31.5 6ZM26.5219 26.1375L18.2719 36.6375C17.8925 37.1209 17.3325 37.4286 16.7222 37.4871C16.65 37.4156 16.575 37.5 16.4156 37.5C15.881 37.5 15.3609 37.3096 14.9513 36.958L9.70125 32.458C8.75813 31.6494 8.64937 30.2287 9.45806 29.2855C10.2652 28.3424 11.6865 28.2337 12.6306 29.0423L16.0974 32.0133L22.8962 23.362C23.6638 22.3833 25.0806 22.2164 26.0556 22.9812C27.1219 23.7469 27.2906 25.1625 26.5219 26.1375Z" fill="#2E2640"/>
</svg>
