<svg width="36" height="48" viewBox="0 0 36 48" fill="none" xmlns="http://www.w3.org/2000/svg">
<path d="M10.6125 6.21563C11.2125 2.69063 14.2969 0 18 0C21.7031 0 24.7875 2.69063 25.3875 6.21563C27.1969 6.80625 28.5 8.50313 28.5 10.5V12.75C28.5 13.9969 27.4969 15 26.25 15H18H9.75C8.50312 15 7.5 13.9969 7.5 12.75V10.5C7.5 8.50313 8.80312 6.80625 10.6125 6.21563ZM20.25 7.5C20.25 6.90326 20.0129 6.33097 19.591 5.90901C19.169 5.48705 18.5967 5.25 18 5.25C17.4033 5.25 16.831 5.48705 16.409 5.90901C15.9871 6.33097 15.75 6.90326 15.75 7.5C15.75 8.09674 15.9871 8.66903 16.409 9.09099C16.831 9.51295 17.4033 9.75 18 9.75C18.5967 9.75 19.169 9.51295 19.591 9.09099C20.0129 8.66903 20.25 8.09674 20.25 7.5ZM6.75 25.5C6.75 24.9033 6.98705 24.331 7.40901 23.909C7.83097 23.4871 8.40326 23.25 9 23.25C9.59674 23.25 10.169 23.4871 10.591 23.909C11.0129 24.331 11.25 24.9033 11.25 25.5C11.25 26.0967 11.0129 26.669 10.591 27.091C10.169 27.5129 9.59674 27.75 9 27.75C8.40326 27.75 7.83097 27.5129 7.40901 27.091C6.98705 26.669 6.75 26.0967 6.75 25.5ZM6.75 34.5C6.75 33.9033 6.98705 33.331 7.40901 32.909C7.83097 32.4871 8.40326 32.25 9 32.25C9.59674 32.25 10.169 32.4871 10.591 32.909C11.0129 33.331 11.25 33.9033 11.25 34.5C11.25 35.0967 11.0129 35.669 10.591 36.091C10.169 36.5129 9.59674 36.75 9 36.75C8.40326 36.75 7.83097 36.5129 7.40901 36.091C6.98705 35.669 6.75 35.0967 6.75 34.5Z" fill="#FF4545"/>
<path d="M10.6125 6.21563C10.6219 6.14063 10.6406 6.06562 10.65 6H6C2.69063 6 0 8.69063 0 12V42C0 45.3094 2.69063 48 6 48H30C33.3094 48 36 45.3094 36 42V12C36 8.69063 33.3094 6 30 6H25.35C25.3687 6.075 25.3781 6.15 25.3875 6.21563C27.1969 6.80625 28.5 8.50313 28.5 10.5V12.75C28.5 13.9969 27.4969 15 26.25 15H18H9.75C8.50313 15 7.5 13.9969 7.5 12.75V10.5C7.5 8.50313 8.80312 6.80625 10.6125 6.21563ZM6.75 25.5C6.75 24.9033 6.98705 24.331 7.40901 23.909C7.83097 23.4871 8.40326 23.25 9 23.25C9.59674 23.25 10.169 23.4871 10.591 23.909C11.0129 24.331 11.25 24.9033 11.25 25.5C11.25 26.0967 11.0129 26.669 10.591 27.091C10.169 27.5129 9.59674 27.75 9 27.75C8.40326 27.75 7.83097 27.5129 7.40901 27.091C6.98705 26.669 6.75 26.0967 6.75 25.5ZM16.5 24H28.5C29.325 24 30 24.675 30 25.5C30 26.325 29.325 27 28.5 27H16.5C15.675 27 15 26.325 15 25.5C15 24.675 15.675 24 16.5 24ZM6.75 34.5C6.75 33.9033 6.98705 33.331 7.40901 32.909C7.83097 32.4871 8.40326 32.25 9 32.25C9.59674 32.25 10.169 32.4871 10.591 32.909C11.0129 33.331 11.25 33.9033 11.25 34.5C11.25 35.0967 11.0129 35.669 10.591 36.091C10.169 36.5129 9.59674 36.75 9 36.75C8.40326 36.75 7.83097 36.5129 7.40901 36.091C6.98705 35.669 6.75 35.0967 6.75 34.5ZM15 34.5C15 33.675 15.675 33 16.5 33H28.5C29.325 33 30 33.675 30 34.5C30 35.325 29.325 36 28.5 36H16.5C15.675 36 15 35.325 15 34.5Z" fill="white"/>
</svg>
