<svg width="48" height="43" viewBox="0 0 48 43" fill="none" xmlns="http://www.w3.org/2000/svg">
<path d="M24 30.6667C24 24.0417 29.375 18.6667 36 18.6667C42.625 18.6667 48 24.0417 48 30.6667C48 37.2917 42.625 42.6667 36 42.6667C29.375 42.6667 24 37.2917 24 30.6667ZM41.6083 28.9417C42.1333 28.4251 42.1333 27.5751 41.6083 27.0584C41.0917 26.5334 40.2417 26.5334 39.725 27.0584L34.6667 32.1167L32.275 29.7251C31.7583 29.2001 30.9083 29.2001 30.3917 29.7251C29.8667 30.2417 29.8667 31.0917 30.3917 31.6084L33.725 34.9417C34.2417 35.4667 35.0917 35.4667 35.6083 34.9417L41.6083 28.9417Z" fill="#FF4545"/>
<path d="M26.6667 0C29.6083 0 32 2.3875 32 5.33333V16.55C25.8417 18.2917 21.3333 23.95 21.3333 30.6667C21.3333 35.5917 23.7583 39.9417 27.475 42.6083C27.2167 42.6417 26.9417 42.6667 26.6667 42.6667H5.33333C2.3875 42.6667 0 40.275 0 37.3333V5.33333C0 2.3875 2.3875 0 5.33333 0H26.6667ZM6.66667 10.6667C5.93 10.6667 5.33333 11.2667 5.33333 12C5.33333 12.7333 5.93 13.3333 6.66667 13.3333H25.3333C26.0667 13.3333 26.6667 12.7333 26.6667 12C26.6667 11.2667 26.0667 10.6667 25.3333 10.6667H6.66667ZM6.66667 21.3333H20C20.7333 21.3333 21.3333 20.7333 21.3333 20C21.3333 19.2667 20.7333 18.6667 20 18.6667H6.66667C5.93 18.6667 5.33333 19.2667 5.33333 20C5.33333 20.7333 5.93 21.3333 6.66667 21.3333ZM6.66667 29.3333H14.6667C15.4 29.3333 16 28.7333 16 28C16 27.2667 15.4 26.6667 14.6667 26.6667H6.66667C5.93 26.6667 5.33333 27.2667 5.33333 28C5.33333 28.7333 5.93 29.3333 6.66667 29.3333Z" fill="#2E2640"/>
</svg>
