<svg width="48" height="38" viewBox="0 0 48 38" fill="none" xmlns="http://www.w3.org/2000/svg">
<path d="M17.3333 4.66699C17.3333 2.45783 19.125 0.666992 21.3333 0.666992H26.6667C28.875 0.666992 30.6667 2.45783 30.6667 4.66699V10.0003C30.6667 12.2087 28.875 14.0003 26.6667 14.0003H21.3333C19.125 14.0003 17.3333 12.2087 17.3333 10.0003V4.66699ZM9.33333 24.667C11.5417 24.667 13.3333 26.4587 13.3333 28.667V34.0003C13.3333 36.2087 11.5417 38.0003 9.33333 38.0003H4C1.79083 38.0003 0 36.2087 0 34.0003V28.667C0 26.4587 1.79083 24.667 4 24.667H9.33333ZM26.6667 24.667C28.875 24.667 30.6667 26.4587 30.6667 28.667V34.0003C30.6667 36.2087 28.875 38.0003 26.6667 38.0003H21.3333C19.125 38.0003 17.3333 36.2087 17.3333 34.0003V28.667C17.3333 26.4587 19.125 24.667 21.3333 24.667H26.6667ZM44 24.667C46.2083 24.667 48 26.4587 48 28.667V34.0003C48 36.2087 46.2083 38.0003 44 38.0003H38.6667C36.4583 38.0003 34.6667 36.2087 34.6667 34.0003V28.667C34.6667 26.4587 36.4583 24.667 38.6667 24.667H44Z" fill="white"/>
<path d="M9.33268 21.3339C8.96602 21.3339 8.66602 21.6339 8.66602 22.0006V24.6673H4.66602V22.0006C4.66602 19.4256 6.75518 17.3339 9.33268 17.3339H21.9993V14.0006H25.9993V17.3339H38.666C41.241 17.3339 43.3327 19.4256 43.3327 22.0006V24.6673H39.3327V22.0006C39.3327 21.6339 39.0327 21.3339 38.666 21.3339H25.9993V24.6673H21.9993V21.3339H9.33268Z" fill="#FF4545"/>
</svg>
