<svg width="48" height="38" viewBox="0 0 48 38" fill="none" xmlns="http://www.w3.org/2000/svg">
<path d="M17.3333 4.00049C17.3333 1.79132 19.125 0.000488281 21.3333 0.000488281H26.6667C28.875 0.000488281 30.6667 1.79132 30.6667 4.00049V9.33382C30.6667 11.5422 28.875 13.3338 26.6667 13.3338H21.3333C19.125 13.3338 17.3333 11.5422 17.3333 9.33382V4.00049ZM9.33333 24.0005C11.5417 24.0005 13.3333 25.7922 13.3333 28.0005V33.3338C13.3333 35.5422 11.5417 37.3338 9.33333 37.3338H4C1.79083 37.3338 0 35.5422 0 33.3338V28.0005C0 25.7922 1.79083 24.0005 4 24.0005H9.33333ZM26.6667 24.0005C28.875 24.0005 30.6667 25.7922 30.6667 28.0005V33.3338C30.6667 35.5422 28.875 37.3338 26.6667 37.3338H21.3333C19.125 37.3338 17.3333 35.5422 17.3333 33.3338V28.0005C17.3333 25.7922 19.125 24.0005 21.3333 24.0005H26.6667ZM44 24.0005C46.2083 24.0005 48 25.7922 48 28.0005V33.3338C48 35.5422 46.2083 37.3338 44 37.3338H38.6667C36.4583 37.3338 34.6667 35.5422 34.6667 33.3338V28.0005C34.6667 25.7922 36.4583 24.0005 38.6667 24.0005H44Z" fill="#2E2640"/>
<path d="M9.33268 20.6674C8.96602 20.6674 8.66602 20.9674 8.66602 21.3341V24.0008H4.66602V21.3341C4.66602 18.7591 6.75518 16.6674 9.33268 16.6674H21.9993V13.3341H25.9993V16.6674H38.666C41.241 16.6674 43.3327 18.7591 43.3327 21.3341V24.0008H39.3327V21.3341C39.3327 20.9674 39.0327 20.6674 38.666 20.6674H25.9993V24.0008H21.9993V20.6674H9.33268Z" fill="#FF4545"/>
</svg>
