<svg width="31" height="49" viewBox="0 0 31 49" fill="none" xmlns="http://www.w3.org/2000/svg">
<path d="M9.2279 24.9257L6.54946 29.3882C5.69634 30.8038 3.85321 31.2632 2.4329 30.4101C1.01255 29.5569 0.553121 27.7194 1.40662 26.2944L6.87009 17.2101C8.49665 14.5007 11.4217 12.8413 14.581 12.8413H17.3748C20.5342 12.8413 23.4592 14.5007 25.0904 17.2101L30.5466 26.2944C31.3998 27.7194 30.9404 29.5569 29.5248 30.4101C28.0998 31.2632 26.2623 30.8038 25.4092 29.3882L22.7279 24.9257V45.8413C22.7279 47.5007 21.3873 48.8413 19.7279 48.8413C18.0685 48.8413 16.7279 47.5007 16.7279 45.8413V33.8413H15.2279V45.8413C15.2279 47.5007 13.8873 48.8413 12.2279 48.8413C10.5685 48.8413 9.2279 47.5007 9.2279 45.8413V24.9257Z" fill="#2E2640"/>
<path d="M20.478 5.34131C20.478 7.82662 18.4624 9.84131 15.978 9.84131C13.4937 9.84131 11.478 7.82662 11.478 5.34131C11.478 2.856 13.4937 0.841309 15.978 0.841309C18.4624 0.841309 20.478 2.856 20.478 5.34131Z" fill="#FF4545"/>
</svg>
