<svg width="48" height="48" viewBox="0 0 48 48" fill="none" xmlns="http://www.w3.org/2000/svg">
<path d="M27 29.25C27 27.1781 28.6781 25.5 30.75 25.5H44.25C46.3219 25.5 48 27.1781 48 29.25V42.75C48 44.8219 46.3219 46.5 44.25 46.5H30.75C28.6781 46.5 27 44.8219 27 42.75V29.25Z" fill="#2E2640"/>
<path d="M27 0C28.05 0 29.0344 0.552938 29.5687 1.45687L38.5687 16.4531C39.1312 17.3813 39.1406 18.5344 38.6062 19.4813C38.0812 20.4188 37.0781 20.9156 36 20.9156H18C16.9219 20.9156 15.9187 20.4188 15.3937 19.4813C14.8594 18.5344 14.8688 17.3813 15.4313 16.4531L24.4313 1.45687C24.9656 0.552844 25.95 0 27 0ZM0 36C0 29.3719 5.37281 24 12 24C18.6281 24 24 29.3719 24 36C24 42.6281 18.6281 48 12 48C5.37281 48 0 42.6281 0 36Z" fill="#FF4545"/>
</svg>
