<svg width="48" height="35" viewBox="0 0 48 35" fill="none" xmlns="http://www.w3.org/2000/svg">
<path d="M38.3996 5.59985H9.59961V24.7999H38.3996V5.59985ZM21.0746 12.8749L18.7496 15.1999L21.0746 17.5249C21.7796 18.2299 21.7796 19.3699 21.0746 20.0674C20.3696 20.7649 19.2296 20.7724 18.5321 20.0674L14.9321 16.4674C14.2271 15.7624 14.2271 14.6224 14.9321 13.9249L18.5321 10.3249C19.2371 9.61985 20.3771 9.61985 21.0746 10.3249C21.7721 11.0299 21.7796 12.1699 21.0746 12.8674V12.8749ZM29.4746 10.3249L33.0746 13.9249C33.7796 14.6299 33.7796 15.7699 33.0746 16.4674L29.4746 20.0674C28.7696 20.7724 27.6296 20.7724 26.9321 20.0674C26.2346 19.3624 26.2271 18.2224 26.9321 17.5249L29.2571 15.1999L26.9321 12.8749C26.2271 12.1699 26.2271 11.0299 26.9321 10.3324C27.6371 9.63485 28.7771 9.62735 29.4746 10.3324V10.3249Z" fill="#FF4545"/>
<path d="M9.6 0.799805C6.9525 0.799805 4.8 2.9523 4.8 5.5998V24.7998H9.6V5.5998H38.4V24.7998H43.2V5.5998C43.2 2.9523 41.0475 0.799805 38.4 0.799805H9.6ZM1.44 27.1998C0.645 27.1998 0 27.8448 0 28.6398C0 31.8198 2.58 34.3998 5.76 34.3998H42.24C45.42 34.3998 48 31.8198 48 28.6398C48 27.8448 47.355 27.1998 46.56 27.1998H1.44Z" fill="#2E2640"/>
</svg>
