<svg width="48" height="34" viewBox="0 0 48 34" fill="none" xmlns="http://www.w3.org/2000/svg">
<path d="M38.3996 5H9.59961V24.2H38.3996V5ZM21.0746 12.275L18.7496 14.6L21.0746 16.925C21.7796 17.63 21.7796 18.77 21.0746 19.4675C20.3696 20.165 19.2296 20.1725 18.5321 19.4675L14.9321 15.8675C14.2271 15.1625 14.2271 14.0225 14.9321 13.325L18.5321 9.725C19.2371 9.02 20.3771 9.02 21.0746 9.725C21.7721 10.43 21.7796 11.57 21.0746 12.2675V12.275ZM29.4746 9.725L33.0746 13.325C33.7796 14.03 33.7796 15.17 33.0746 15.8675L29.4746 19.4675C28.7696 20.1725 27.6296 20.1725 26.9321 19.4675C26.2346 18.7625 26.2271 17.6225 26.9321 16.925L29.2571 14.6L26.9321 12.275C26.2271 11.57 26.2271 10.43 26.9321 9.7325C27.6371 9.035 28.7771 9.0275 29.4746 9.7325V9.725Z" fill="#FF4545"/>
<path d="M9.6 0.199951C6.9525 0.199951 4.8 2.35245 4.8 4.99995V24.1999H9.6V4.99995H38.4V24.1999H43.2V4.99995C43.2 2.35245 41.0475 0.199951 38.4 0.199951H9.6ZM1.44 26.5999C0.645 26.5999 0 27.245 0 28.04C0 31.2199 2.58 33.7999 5.76 33.7999H42.24C45.42 33.7999 48 31.2199 48 28.04C48 27.245 47.355 26.5999 46.56 26.5999H1.44Z" fill="white"/>
</svg>
