<svg width="503" height="369" viewBox="0 0 503 369" fill="none" xmlns="http://www.w3.org/2000/svg">
<path d="M443.606 332.505C440.096 323.579 439.585 313.811 442.181 304.592C441.925 304.702 441.632 304.811 441.376 304.921C442.034 305.36 442.656 305.836 443.314 306.275C443.57 306.458 444.082 306.275 444.118 305.946C446.531 288.934 453.625 272.838 464.593 259.594C464.301 259.521 463.972 259.448 463.679 259.338C469.676 284.471 462.253 310.262 453.186 333.676C452.93 334.334 453.99 334.627 454.246 333.968C463.387 310.336 470.772 284.398 464.74 259.046C464.666 258.68 464.081 258.497 463.826 258.79C452.784 272.179 445.544 288.459 443.095 305.653C443.351 305.543 443.643 305.433 443.899 305.324C443.241 304.885 442.619 304.409 441.961 303.97C441.669 303.751 441.23 303.97 441.157 304.299C438.524 313.701 439 323.725 442.583 332.798C442.802 333.456 443.862 333.164 443.606 332.505Z" fill="#F2F2F2"/>
<path d="M466.422 284.617C468.725 279.02 471.614 273.716 475.014 268.667C474.758 268.74 474.502 268.813 474.246 268.85C474.685 269.179 475.16 269.509 475.599 269.801C475.855 269.984 476.22 269.838 476.367 269.618C479.548 263.875 483.277 258.46 487.555 253.485C487.262 253.448 486.97 253.412 486.677 253.375C492.308 263.07 488.03 275.033 484.593 284.727C480.864 295.373 476.22 305.689 470.444 315.347C467.153 320.835 463.497 326.103 459.475 331.042C459.036 331.591 459.804 332.359 460.243 331.81C467.628 322.737 473.698 312.75 478.634 302.177C481.083 296.946 483.24 291.605 485.215 286.191C487.153 280.813 489.054 275.325 489.931 269.655C490.845 263.875 490.553 257.948 487.591 252.79C487.409 252.497 486.97 252.424 486.714 252.68C482.399 257.765 478.597 263.216 475.343 269.033C475.599 268.96 475.855 268.887 476.111 268.85C475.672 268.521 475.197 268.192 474.758 267.899C474.502 267.716 474.173 267.862 473.99 268.082C470.553 273.167 467.665 278.581 465.288 284.288C465.105 284.983 466.166 285.276 466.422 284.617Z" fill="#F2F2F2"/>
<path d="M463.094 259.96C458.268 282.313 450.919 304.08 447.445 326.688C447.336 327.384 448.396 327.676 448.506 326.981C451.979 304.336 459.328 282.569 464.154 260.253C464.301 259.558 463.24 259.265 463.094 259.96Z" fill="#F2F2F2"/>
<path d="M486.969 253.632C483.203 276.606 472.015 297.276 460.973 317.433C460.644 318.055 461.595 318.604 461.924 317.982C473.003 297.715 484.227 276.972 488.03 253.924C488.139 253.229 487.079 252.936 486.969 253.632Z" fill="#F2F2F2"/>
<path d="M448.104 286.849C450.7 290.873 452.418 295.336 453.15 300.092C453.259 300.787 454.32 300.495 454.21 299.8C453.479 294.971 451.724 290.398 449.055 286.3C448.652 285.715 447.702 286.264 448.104 286.849Z" fill="#F2F2F2"/>
<path d="M455.782 293.507C459.475 287.837 463.168 282.13 466.861 276.459C467.263 275.874 466.312 275.325 465.91 275.911C462.217 281.581 458.524 287.288 454.832 292.958C454.429 293.544 455.38 294.093 455.782 293.507Z" fill="#F2F2F2"/>
<path d="M470.48 274.228C470.334 281.837 470.882 289.41 472.052 296.91C472.162 297.605 473.222 297.312 473.113 296.617C471.943 289.191 471.431 281.728 471.577 274.228C471.614 273.496 470.517 273.496 470.48 274.228Z" fill="#F2F2F2"/>
<path d="M481.083 278.984C484.081 275.947 487.006 272.764 489.785 269.509C490.224 268.96 489.456 268.192 489.017 268.74C486.238 271.996 483.35 275.142 480.315 278.215C479.803 278.728 480.571 279.496 481.083 278.984Z" fill="#F2F2F2"/>
<path d="M47.3788 313.518C39.4082 307.848 33.8872 299.251 32.0225 289.63C31.9129 289.849 31.7666 290.069 31.6569 290.288C32.5344 290.032 33.3388 290.251 33.9969 290.91C34.4722 291.386 35.0938 290.8 34.8744 290.251C30.0116 279.276 27.4522 267.387 27.4157 255.388C27.2694 255.57 27.1597 255.753 27.0135 255.9C27.3791 256.083 27.7813 256.302 28.1469 256.485C28.4029 256.924 29.2072 256.778 29.1707 256.192C28.9147 253.01 28.6588 249.827 28.4029 246.644C28.1835 243.827 27.8544 240.864 29.6825 238.486C29.4266 238.559 29.1707 238.632 28.9147 238.669C31.4741 240.498 32.9732 243.461 34.4722 246.132C35.9347 248.766 37.3241 251.473 38.6404 254.18C41.3825 259.887 43.7225 265.777 45.6604 271.813C49.4994 283.593 51.8029 295.812 52.5707 308.177C52.6072 308.872 53.7041 308.872 53.6675 308.177C52.8632 295.3 50.4135 282.532 46.3185 270.277C44.3075 264.277 41.931 258.424 39.1522 252.754C37.7263 249.827 36.2272 246.973 34.6185 244.156C33.2291 241.705 31.8032 239.364 29.4632 237.681C29.2072 237.498 28.8782 237.645 28.6954 237.864C27.05 240.023 27.0135 242.73 27.1597 245.364C27.4157 248.949 27.7447 252.534 28.0372 256.156C28.3663 256.046 28.7319 255.973 29.061 255.863C28.5125 254.912 27.7447 254.619 26.6844 254.766C26.465 254.802 26.2822 255.058 26.2822 255.278C26.3554 267.497 28.9513 279.533 33.8872 290.69C34.1797 290.471 34.4722 290.251 34.7647 290.032C33.8141 289.044 32.6441 288.752 31.3644 289.117C31.0719 289.191 30.9257 289.483 30.9988 289.776C32.9366 299.69 38.6404 308.47 46.8304 314.323C47.4154 314.872 47.9638 313.921 47.3788 313.518Z" fill="#F2F2F2"/>
<path d="M44.088 263.472C43.7589 261.387 43.503 259.302 43.3933 257.217C43.2836 255.278 42.7351 252.388 44.1976 250.851C45.0386 250.01 45.4408 249.607 45.6236 248.327C45.8795 246.278 45.8795 244.193 46.0989 242.144C46.5376 237.864 47.1592 233.657 48.0367 229.45C48.183 228.755 48.2561 227.438 48.6217 226.816C49.4992 225.389 50.852 226.889 51.5467 227.584C52.7898 228.828 53.777 230.291 54.618 231.828C58.128 238.266 59.0786 246.205 60.0292 253.375C61.0895 261.35 61.5283 269.399 61.3089 277.447C61.0895 286.593 59.8464 295.702 56.702 304.336C56.4461 304.994 57.5064 305.287 57.7623 304.629C63.8683 287.764 63.3198 268.631 60.797 251.144C59.7367 243.717 58.6033 235.267 54.1061 228.974C53.1189 227.621 50.1208 223.304 48.183 225.243C47.1592 226.231 47.0861 228.535 46.8301 229.816C46.3548 232.23 45.9161 234.645 45.587 237.096C45.258 239.474 45.002 241.852 44.7826 244.229C44.673 245.51 44.7826 246.973 44.4901 248.217C44.1976 249.424 43.3201 249.79 42.7351 250.741C41.7845 252.205 42.1501 254.509 42.2233 256.156C42.333 258.68 42.6255 261.204 43.0276 263.728C43.1373 264.46 44.1976 264.167 44.088 263.472Z" fill="#F2F2F2"/>
<path d="M48.5123 226.048C54.3989 248.876 56.0442 272.618 53.3751 296.032C53.302 296.727 54.3989 296.727 54.472 296.032C57.1411 272.508 55.4592 248.656 49.5726 225.755C49.3898 225.096 48.3295 225.389 48.5123 226.048Z" fill="#F2F2F2"/>
<path d="M28.1467 238.449C36.7389 260.436 43.4298 283.118 48.2195 306.238C48.3658 306.933 49.4261 306.641 49.2798 305.946C44.5267 282.825 37.7992 260.143 29.207 238.157C28.9145 237.498 27.8542 237.791 28.1467 238.449Z" fill="#F2F2F2"/>
<path d="M28.3293 272.106C34.3256 273.789 39.2981 277.74 42.3328 283.191C42.6618 283.813 43.6125 283.264 43.2834 282.642C40.1025 276.972 34.8375 272.838 28.6218 271.082C27.9272 270.862 27.6347 271.923 28.3293 272.106Z" fill="#F2F2F2"/>
<path d="M40.4683 257.912C39.8102 263.582 39.7005 269.253 40.1392 274.923C40.1758 275.618 41.2727 275.618 41.2361 274.923C40.7974 269.253 40.907 263.582 41.5652 257.912C41.6383 257.217 40.5414 257.217 40.4683 257.912Z" fill="#F2F2F2"/>
<path d="M44.3438 250.595C49.3163 257.07 52.7897 264.533 54.5447 272.509C54.6909 273.204 55.7513 272.911 55.605 272.216C53.8134 264.168 50.34 256.595 45.2944 250.046C44.8922 249.461 43.9416 250.01 44.3438 250.595Z" fill="#F2F2F2"/>
<path d="M57.0678 237.425C55.2396 241.669 53.96 246.059 53.2653 250.632C53.1556 251.327 54.2159 251.619 54.3256 250.924C54.9837 246.461 56.2268 242.144 58.0184 237.974C58.3109 237.352 57.3603 236.767 57.0678 237.425Z" fill="#F2F2F2"/>
<path d="M9.06093 339.675C28.8778 332.688 50.0109 338.249 69.9009 341.797C91.1437 345.565 112.606 348.053 134.105 349.187C146.28 349.846 158.455 350.065 170.667 349.846C171.362 349.846 171.362 348.748 170.667 348.748C148.693 349.114 126.682 348.09 104.818 345.712C93.7031 344.504 82.6247 342.931 71.6194 340.992C61.7841 339.273 51.9853 337.151 42.0769 335.98C30.9253 334.7 19.4812 334.846 8.76843 338.614C8.11031 338.871 8.40281 339.931 9.06093 339.675Z" fill="#F2F2F2"/>
<path d="M123.904 338.761C156.7 346.809 190.667 344.688 223.939 341.615C241.05 340.041 258.125 338.176 275.272 337.261C292.384 336.347 309.458 336.639 326.533 338.322C346.387 340.298 366.021 343.919 385.545 348.017C386.24 348.163 386.532 347.102 385.838 346.956C351.908 339.822 317.648 334.591 282.914 335.834C248.911 337.042 215.2 342.639 181.161 343.261C162.038 343.627 142.843 342.273 124.233 337.7C123.502 337.517 123.209 338.578 123.904 338.761Z" fill="#F2F2F2"/>
<path d="M267.192 361.991C294.102 356.431 321.487 361.699 348.288 365.247C374.942 368.759 401.779 369.345 428.469 365.942C443.24 364.077 457.829 361.077 472.125 357.052C472.819 356.87 472.527 355.809 471.832 355.992C445.909 363.308 419.036 367.113 392.089 367.223C378.708 367.259 365.399 366.345 352.127 364.662C338.562 362.942 325.07 360.711 311.469 359.43C296.588 358.04 281.561 357.894 266.863 360.967C266.205 361.077 266.497 362.138 267.192 361.991Z" fill="#F2F2F2"/>
<path d="M387.886 333.968C401.56 339.053 416.258 336.054 429.969 332.761C445.142 329.139 460.243 326.14 475.855 325.262C484.52 324.786 493.222 324.859 501.887 325.408C502.582 325.444 502.582 324.347 501.887 324.31C486.824 323.323 471.723 323.908 456.769 326.066C449.311 327.164 441.925 328.7 434.612 330.493C427.337 332.249 420.024 334.115 412.565 335.029C404.339 336.054 396.002 335.798 388.178 332.871C387.52 332.688 387.228 333.749 387.886 333.968Z" fill="#F2F2F2"/>
<path d="M376.807 216.829C375.747 220.121 374.65 223.377 373.589 226.67C373.333 227.511 373.078 228.316 373.333 229.194C373.699 230.364 374.942 231.06 374.979 232.377C375.198 232.194 375.454 232.011 375.673 231.864C371.359 230.584 371.505 237.462 371.652 239.876C371.908 244.669 373.443 249.278 376.003 253.302C376.368 253.888 377.319 253.339 376.953 252.753C375.125 249.9 373.845 246.754 373.187 243.425C372.822 241.632 371.542 231.755 375.381 232.889C375.71 232.998 376.076 232.706 376.076 232.377C376.076 231.499 375.747 230.913 375.235 230.218C374.284 228.865 374.357 227.877 374.869 226.304C375.856 223.231 376.88 220.194 377.867 217.121C378.087 216.426 377.026 216.134 376.807 216.829Z" fill="#F2F2F2"/>
<path d="M377.172 216.975C381.304 221.182 382.328 228.023 382.657 233.657C383.022 239.73 382.145 245.803 380.207 251.546C379.988 252.205 381.048 252.498 381.267 251.839C383.388 245.583 384.265 238.925 383.68 232.34C383.205 226.743 382.035 220.341 377.977 216.17C377.428 215.695 376.66 216.463 377.172 216.975Z" fill="#F2F2F2"/>
<path d="M383.717 233.255C384.449 228.352 385.692 223.597 387.41 218.95C387.154 219.06 386.862 219.17 386.606 219.28C387.374 219.792 388.141 220.341 388.909 220.853C389.275 221.109 389.714 220.78 389.75 220.377C390.079 212.219 396.441 205.963 398.159 198.208C397.794 198.208 397.465 198.208 397.099 198.208C400.024 215.841 396.331 234.206 386.825 249.351C386.459 249.937 387.41 250.485 387.776 249.9C397.428 234.498 401.121 215.841 398.159 197.915C398.086 197.366 397.209 197.403 397.099 197.915C395.344 205.817 388.982 212.073 388.653 220.377C388.946 220.231 389.202 220.048 389.494 219.902C388.726 219.389 387.959 218.841 387.191 218.329C386.862 218.109 386.496 218.365 386.386 218.658C384.668 223.304 383.425 228.06 382.694 232.962C382.547 233.657 383.608 233.95 383.717 233.255Z" fill="#F2F2F2"/>
<path d="M396.989 200.476C395.819 213.975 392.163 227.145 386.203 239.291C385.911 239.913 386.825 240.461 387.154 239.839C393.187 227.474 396.916 214.158 398.086 200.476C398.123 199.744 397.026 199.781 396.989 200.476Z" fill="#F2F2F2"/>
<path d="M376.661 217.853C378.16 228.755 379.586 239.876 377.282 250.741C377.136 251.436 378.197 251.729 378.343 251.034C380.719 239.949 379.257 228.645 377.721 217.56C377.648 216.865 376.588 217.158 376.661 217.853Z" fill="#F2F2F2"/>
<path d="M323.535 254.51C329.166 254.071 334.833 254.473 340.318 255.827C344.961 256.961 349.568 259.302 354.431 258.57C359.44 257.802 363.644 254.473 368.8 254.29C373.772 254.107 378.672 255.827 383.571 254.4C384.266 254.217 383.973 253.156 383.279 253.339C378.16 254.802 373.004 252.79 367.849 253.266C363.169 253.705 359.257 256.522 354.723 257.436C349.495 258.461 344.303 255.607 339.257 254.51C334.065 253.375 328.764 253.046 323.499 253.485C322.841 253.449 322.841 254.546 323.535 254.51Z" fill="#F2F2F2"/>
<path d="M1.01738 305.799C11.1086 315.238 25.7336 305.031 37.3239 308.799C37.9821 309.019 38.2746 307.958 37.6164 307.738C31.4374 305.726 25.1121 307.299 18.8964 308.25C13.083 309.128 6.39206 309.275 1.78519 304.995C1.27331 304.556 0.468942 305.324 1.01738 305.799Z" fill="#F2F2F2"/>
<path d="M436.075 319.152C376.514 322.92 313.627 325.225 247.668 325.554C181.234 325.883 117.871 324.164 57.9087 320.981C63.7953 310.628 69.7184 300.312 75.6781 290.032C80.4678 281.727 85.3306 273.459 90.1934 265.228C141.747 268.155 197.468 269.326 256.809 267.862C312.713 266.472 365.29 262.887 414.101 257.875C418.598 264.204 423.79 272.764 428.031 283.556C433.515 297.568 435.416 310.116 436.075 319.152Z" fill="#F9F9F9" stroke="#2E2640" stroke-width="3" stroke-miterlimit="10"/>
<path d="M85.5132 313.518C106.281 315.75 127.194 316.445 148.108 315.603C148.803 315.567 148.803 314.469 148.108 314.506C127.231 315.347 106.317 314.652 85.5132 312.421C84.8185 312.348 84.8185 313.445 85.5132 313.518Z" fill="#2E2640"/>
<path d="M122.478 308.25C132.606 308.653 142.77 308.397 152.898 308.397C163.172 308.36 173.41 308.36 183.684 308.323C184.378 308.323 184.378 307.226 183.684 307.226C173.41 307.263 163.172 307.263 152.898 307.299C142.77 307.336 132.606 307.555 122.478 307.153C121.783 307.116 121.783 308.214 122.478 308.25Z" fill="#2E2640"/>
<path d="M257.65 305.58C288.618 303.604 319.55 301.263 350.482 298.556C351.177 298.482 351.177 297.385 350.482 297.458C319.587 300.165 288.618 302.507 257.65 304.482C256.955 304.519 256.955 305.616 257.65 305.58Z" fill="#2E2640"/>
<path d="M338.379 286.776C362.364 285.898 386.313 284.398 410.225 282.166C410.919 282.093 410.919 280.996 410.225 281.069C386.313 283.264 362.364 284.8 338.379 285.678C337.685 285.678 337.685 286.776 338.379 286.776Z" fill="#2E2640"/>
<path d="M359.367 310.262C379.513 309.384 399.659 308.506 419.805 307.592C420.499 307.555 420.499 306.458 419.805 306.494C399.659 307.372 379.513 308.25 359.367 309.165C358.672 309.201 358.672 310.299 359.367 310.262Z" fill="#2E2640"/>
<path d="M93.5571 263.911C94.4712 265.631 95.3853 267.35 96.3359 269.106C97.1768 269.655 100.029 271.338 103.612 270.679C105.111 270.423 106.281 269.838 107.049 269.362C108.072 267.57 109.096 265.777 110.12 263.985C108.109 263.363 105.147 262.631 101.491 262.668C98.164 262.704 95.4584 263.326 93.5571 263.911Z" fill="#F9F9F9" stroke="#2E2640" stroke-width="3" stroke-miterlimit="10"/>
<path d="M94.1788 264.533C97.4694 266.582 102.186 266.106 105.879 265.887C106.573 265.85 106.573 264.753 105.879 264.789C102.405 264.972 97.8351 265.521 94.7272 263.582C94.1422 263.216 93.5938 264.167 94.1788 264.533Z" fill="#2E2640"/>
<path d="M85.6597 239.876C88.7675 247.924 91.8753 255.973 94.9465 264.021C95.2025 264.679 96.2628 264.387 96.0069 263.728C92.899 255.68 89.7912 247.632 86.72 239.583C86.464 238.925 85.4037 239.181 85.6597 239.876Z" fill="#2E2640"/>
<path d="M90.3395 240.059C91.9482 248.29 93.8495 256.485 96.0067 264.606C96.1895 265.301 97.2498 265.009 97.067 264.314C94.8732 256.192 92.972 247.998 91.3998 239.766C91.2536 239.071 90.1932 239.364 90.3395 240.059Z" fill="#2E2640"/>
<path d="M85.879 235.779C85.3305 234.023 86.793 232.376 86.3909 230.547C85.9155 228.608 84.0143 227.804 84.2337 225.572C84.3799 224.035 85.1477 222.572 84.8918 220.999C84.709 220.011 84.0874 219.426 83.6487 218.548C83.1368 217.45 83.3562 216.426 83.6487 215.292C83.9412 214.012 84.4165 212.621 83.9046 211.304C83.6487 210.609 83.1368 210.28 82.6981 209.731C81.6743 208.524 81.8205 207.28 82.0765 205.817C82.8809 201.281 82.9174 196.927 81.7474 192.427C81.5646 191.732 80.5043 192.025 80.6871 192.72C81.3452 195.281 81.7109 197.878 81.6377 200.512C81.5646 202.744 80.9796 204.829 80.7968 207.024C80.6505 208.817 81.2356 209.585 82.3324 210.865C83.7584 212.585 82.5518 214.56 82.2959 216.499C82.2227 217.121 82.2227 217.78 82.4055 218.402C82.698 219.426 83.6121 220.121 83.7949 221.219C84.0874 222.975 82.9905 224.694 83.1002 226.45C83.2465 228.352 85.2209 229.34 85.3671 231.169C85.5134 232.889 84.2702 234.279 84.8187 236.071C85.038 236.73 86.0984 236.437 85.879 235.779Z" fill="#F2F2F2"/>
<path d="M91.1805 234.937C90.047 233.876 91.473 232.779 91.0708 231.535C90.8514 230.84 90.1202 230.328 90.0836 229.56C90.047 228.865 90.5224 228.096 90.632 227.401C90.8149 226.084 90.1202 225.462 89.7911 224.255C89.3524 222.609 90.3395 220.78 90.632 219.17C90.8514 217.926 90.7417 216.865 90.303 215.694C89.9374 214.743 89.5717 213.939 89.6449 212.914C89.718 212.073 90.0836 211.305 90.2664 210.5C90.9977 207.573 88.4017 204.463 89.6449 201.756C89.9374 201.134 88.9867 200.549 88.6942 201.208C87.2317 204.317 89.9374 207.28 89.133 210.5C88.7308 212.109 88.2555 213.28 88.8039 214.926C89.133 215.841 89.6083 216.719 89.6449 217.743C89.718 218.768 89.3524 219.755 89.0964 220.706C88.7674 221.95 88.4017 223.267 88.7308 224.548C89.0233 225.609 89.718 226.413 89.4621 227.584C89.3158 228.169 89.0599 228.718 89.0233 229.34C88.9867 229.925 89.0599 230.364 89.3524 230.877C89.4986 231.133 89.9374 231.535 89.9739 231.718C90.047 232.011 89.7911 232.596 89.718 232.852C89.462 233.986 89.5352 234.828 90.4127 235.669C90.9245 236.181 91.6924 235.413 91.1805 234.937Z" fill="#F2F2F2"/>
<path d="M41.8942 69.4708C49.1335 71.739 56.8117 71.5927 64.307 71.4463C71.4732 71.3 78.6029 70.8244 85.696 70.0928C99.8457 68.5928 113.849 65.9222 127.597 62.2273C155.421 54.7643 182.075 43.204 206.974 28.7902C221.087 20.6321 234.615 11.5594 247.595 1.71849C248.143 1.27949 247.595 0.328327 247.046 0.767327C224.341 17.9981 199.844 32.9241 173.812 44.5576C147.706 56.2277 119.992 64.6418 91.5826 68.3002C83.7948 69.3245 75.9339 69.983 68.0729 70.2391C59.5173 70.5317 50.4863 71.0073 42.2232 68.4099C41.5285 68.227 41.236 69.2513 41.8942 69.4708Z" fill="#F2F2F2"/>
<path d="M231.251 13.4252C241.013 21.876 252.53 27.9122 264.377 32.9241C277.1 38.3019 290.263 42.7651 303.645 46.2039C330.116 53.0816 357.575 56.1546 384.887 55.3131C400.462 54.8376 416.733 53.7766 431.614 48.8013C432.272 48.5818 431.979 47.5209 431.321 47.7404C418.085 52.2036 403.79 53.3376 389.932 54.0327C376.514 54.6912 363.059 54.3986 349.714 53.1547C322.694 50.6671 296.04 44.3381 270.812 34.3509C257.028 28.9 243.39 22.4247 232.092 12.657C231.47 12.1814 230.703 12.9496 231.251 13.4252Z" fill="#F2F2F2"/>
<path d="M84.6358 32.1193C98.0543 39.8749 114.032 41.7773 129.169 43.3869C144.745 45.0332 160.466 45.4722 176.152 44.7771C207.084 43.3869 237.869 37.5336 267.119 27.4C283.609 21.693 299.587 14.6324 314.906 6.32802C315.528 5.99877 314.98 5.04761 314.358 5.37686C287.411 20.0468 258.308 30.6925 228.29 37.058C198.199 43.4235 167.157 45.4722 136.481 42.9845C127.78 42.2894 119.041 41.3017 110.449 39.7286C101.637 38.1189 92.9721 35.7044 85.1843 31.2047C84.5993 30.8389 84.0508 31.79 84.6358 32.1193Z" fill="#F2F2F2"/>
<path d="M129.681 55.8617C129.681 60.3981 129.681 64.971 129.681 69.5073C129.681 70.2024 130.778 70.2024 130.778 69.5073C130.778 64.971 130.778 60.3981 130.778 55.8617C130.778 55.1301 129.681 55.1301 129.681 55.8617Z" fill="#2E2640"/>
<path d="M130.01 78.5068C130.01 83.848 130.01 89.1525 130.01 94.4937C130.01 95.1888 131.107 95.1888 131.107 94.4937C131.107 89.1525 131.107 83.848 131.107 78.5068C131.107 77.8117 130.01 77.7751 130.01 78.5068Z" fill="#2E2640"/>
<path d="M148.657 93.506C148.657 100.164 148.657 106.822 148.657 113.481C148.657 114.176 149.754 114.176 149.754 113.481C149.754 106.822 149.754 100.164 149.754 93.506C149.754 92.7744 148.657 92.7744 148.657 93.506Z" fill="#2E2640"/>
<path d="M147.999 129.468C147.999 132.687 147.999 135.906 147.999 139.126C147.999 139.821 149.095 139.821 149.095 139.126C149.095 135.906 149.095 132.687 149.095 129.468C149.095 128.773 147.999 128.773 147.999 129.468Z" fill="#2E2640"/>
<path d="M185.95 31.2047C185.95 37.0946 185.95 42.9845 185.95 48.8744C185.95 49.5695 187.047 49.5695 187.047 48.8744C187.047 42.9845 187.047 37.0946 187.047 31.2047C187.047 30.5096 185.95 30.5096 185.95 31.2047Z" fill="#2E2640"/>
<path d="M185.95 55.1668C185.95 59.5934 185.95 64.0566 185.95 68.4832C185.95 69.1782 187.047 69.1782 187.047 68.4832C187.047 64.0566 187.047 59.5934 187.047 55.1668C187.047 54.4717 185.95 54.4717 185.95 55.1668Z" fill="#2E2640"/>
<path d="M343.06 37.8629C343.06 45.5088 343.06 53.1913 343.06 60.8372C343.06 61.5323 344.156 61.5323 344.156 60.8372C344.156 53.1913 344.156 45.5088 344.156 37.8629C344.156 37.1678 343.06 37.1678 343.06 37.8629Z" fill="#2E2640"/>
<path d="M342.73 69.8367C342.73 73.8243 342.73 77.8485 342.73 81.8361C342.73 82.5312 343.827 82.5312 343.827 81.8361C343.827 77.8485 343.827 73.8243 343.827 69.8367C343.827 69.1417 342.73 69.1417 342.73 69.8367Z" fill="#2E2640"/>
<path d="M277.467 24.5466C277.467 29.4488 277.467 34.3143 277.467 39.2165C277.467 39.9116 278.564 39.9116 278.564 39.2165C278.564 34.3143 278.564 29.4488 278.564 24.5466C278.564 23.8515 277.467 23.8149 277.467 24.5466Z" fill="#2E2640"/>
<path d="M277.832 53.1912C277.832 57.6178 277.832 62.081 277.832 66.5076C277.832 67.2027 278.929 67.2027 278.929 66.5076C278.929 62.081 278.929 57.6178 278.929 53.1912C278.929 52.4962 277.832 52.4962 277.832 53.1912Z" fill="#2E2640"/>
<path d="M379.695 77.1534C379.695 81.4702 379.695 85.8236 379.695 90.1405C379.695 90.8356 380.792 90.8356 380.792 90.1405C380.792 85.8236 380.792 81.4702 380.792 77.1534C380.792 76.4583 379.695 76.4583 379.695 77.1534Z" fill="#2E2640"/>
<path d="M380.024 99.14C380.024 102.579 380.024 106.018 380.024 109.456C380.024 110.152 381.121 110.152 381.121 109.456C381.121 106.018 381.121 102.579 381.121 99.14C381.121 98.4449 380.024 98.4449 380.024 99.14Z" fill="#2E2640"/>
<path d="M130.522 80.6288C133.874 80.6288 136.591 77.9099 136.591 74.556C136.591 71.2021 133.874 68.4832 130.522 68.4832C127.17 68.4832 124.452 71.2021 124.452 74.556C124.452 77.9099 127.17 80.6288 130.522 80.6288Z" fill="#855EDE"/>
<path d="M148.839 146.223C151.141 146.223 153.008 144.355 153.008 142.052C153.008 139.749 151.141 137.882 148.839 137.882C146.538 137.882 144.671 139.749 144.671 142.052C144.671 144.355 146.538 146.223 148.839 146.223Z" fill="#855EDE"/>
<path d="M186.974 76.2752C188.065 76.2752 188.949 75.3908 188.949 74.2997C188.949 73.2087 188.065 72.3242 186.974 72.3242C185.884 72.3242 185 73.2087 185 74.2997C185 75.3908 185.884 76.2752 186.974 76.2752Z" fill="#855EDE"/>
<path d="M279.404 81.8361C280.938 81.8361 282.183 80.5913 282.183 79.0557C282.183 77.5202 280.938 76.2754 279.404 76.2754C277.869 76.2754 276.625 77.5202 276.625 79.0557C276.625 80.5913 277.869 81.8361 279.404 81.8361Z" fill="#855EDE"/>
<path d="M279.221 47.338C280.635 47.338 281.781 46.1915 281.781 44.7771C281.781 43.3628 280.635 42.2163 279.221 42.2163C277.808 42.2163 276.662 43.3628 276.662 44.7771C276.662 46.1915 277.808 47.338 279.221 47.338Z" fill="#855EDE"/>
<path d="M148.474 126.724C150.049 126.724 151.326 125.446 151.326 123.87C151.326 122.294 150.049 121.017 148.474 121.017C146.899 121.017 145.622 122.294 145.622 123.87C145.622 125.446 146.899 126.724 148.474 126.724Z" fill="#FF4545"/>
<path d="M186.134 32.4119C187.689 32.4119 188.949 31.1507 188.949 29.595C188.949 28.0393 187.689 26.7781 186.134 26.7781C184.579 26.7781 183.318 28.0393 183.318 29.595C183.318 31.1507 184.579 32.4119 186.134 32.4119Z" fill="#FF4545"/>
<path d="M186.134 57.3252C187.689 57.3252 188.949 56.0641 188.949 54.5083C188.949 52.9526 187.689 51.6914 186.134 51.6914C184.579 51.6914 183.318 52.9526 183.318 54.5083C183.318 56.0641 184.579 57.3252 186.134 57.3252Z" fill="#FF4545"/>
<path d="M278.014 71.3001C278.782 71.3001 279.404 70.6777 279.404 69.9099C279.404 69.1422 278.782 68.5198 278.014 68.5198C277.247 68.5198 276.625 69.1422 276.625 69.9099C276.625 70.6777 277.247 71.3001 278.014 71.3001Z" fill="#FF4545"/>
<path d="M343.645 93.4694C346.855 93.4694 349.458 90.8652 349.458 87.6527C349.458 84.4402 346.855 81.8359 343.645 81.8359C340.434 81.8359 337.831 84.4402 337.831 87.6527C337.831 90.8652 340.434 93.4694 343.645 93.4694Z" fill="#FF4545"/>
<path d="M381.194 120.761C382.728 120.761 383.973 119.516 383.973 117.98C383.973 116.445 382.728 115.2 381.194 115.2C379.659 115.2 378.415 116.445 378.415 117.98C378.415 119.516 379.659 120.761 381.194 120.761Z" fill="#FF4545"/>
<path d="M343.608 47.338C345.022 47.338 346.168 46.1915 346.168 44.7771C346.168 43.3628 345.022 42.2163 343.608 42.2163C342.195 42.2163 341.049 43.3628 341.049 44.7771C341.049 46.1915 342.195 47.338 343.608 47.338Z" fill="#FF4545"/>
<path d="M343.644 57.8372C344.735 57.8372 345.619 56.9528 345.619 55.8617C345.619 54.7707 344.735 53.8862 343.644 53.8862C342.554 53.8862 341.67 54.7707 341.67 55.8617C341.67 56.9528 342.554 57.8372 343.644 57.8372Z" fill="#855EDE"/>
<path d="M380.573 95.701C381.663 95.701 382.547 94.8165 382.547 93.7255C382.547 92.6345 381.663 91.75 380.573 91.75C379.483 91.75 378.599 92.6345 378.599 93.7255C378.599 94.8165 379.483 95.701 380.573 95.701Z" fill="#855EDE"/>
<path d="M103.282 122.151C101.564 124.858 99.8455 127.528 98.1271 130.236C96.7742 132.357 95.4214 134.589 94.9461 137.113C94.1783 141.467 97.1033 144.393 99.5896 147.54C101.015 149.332 102.332 151.381 101.71 153.722C101.162 155.844 99.4067 157.673 99.6627 160.014C99.7724 161.002 100.284 161.77 100.723 162.612C101.454 164.075 101.966 165.648 102.149 167.258C102.478 170.258 101.783 173.258 100.211 175.818C99.8455 176.44 100.796 176.989 101.162 176.367C103.575 172.38 104.05 167.368 102.185 163.051C101.527 161.514 100.43 160.271 100.906 158.441C101.235 157.234 101.93 156.173 102.405 155.039C103.1 153.32 103.173 151.6 102.441 149.881C100.796 146.003 96.2258 143.479 95.9333 138.979C95.7505 135.943 97.5421 133.162 99.0777 130.711C100.796 128.004 102.515 125.297 104.233 122.626C104.599 122.114 103.648 121.565 103.282 122.151Z" fill="#F2F2F2"/>
<path d="M170.813 163.6C168.108 166.344 166.755 170.185 167.194 174.026C167.413 176.038 168.217 177.721 169.168 179.514C170.594 182.221 170.923 184.269 169.826 187.123C169.168 188.806 168.327 190.525 168.547 192.354C168.766 194.44 170.375 195.537 171.362 197.256C173.446 200.988 169.241 204.902 170.228 208.89C170.411 209.585 171.472 209.292 171.289 208.597C170.375 205.012 173.812 201.829 172.934 198.208C172.495 196.452 171.069 195.354 170.192 193.854C168.949 191.732 170.119 189.501 170.887 187.416C171.508 185.769 171.947 184.123 171.581 182.367C171.106 180.209 169.643 178.453 168.876 176.404C167.34 172.27 168.51 167.478 171.581 164.368C172.093 163.856 171.325 163.088 170.813 163.6Z" fill="#F2F2F2"/>
<path d="M408.178 171.575C404.521 175.855 400.975 181.379 401.34 187.269C401.523 190.086 402.766 192.354 404.302 194.659C406.094 197.33 407.629 199.854 406.752 203.183C405.582 207.536 401.267 211.89 402.766 216.682C403.68 219.609 406.606 221.219 407.3 224.292C408.105 227.95 406.423 231.791 404.924 235.047C404.631 235.669 405.582 236.254 405.874 235.596C407.117 232.889 408.324 230.072 408.543 227.072C408.763 224.218 407.812 221.95 406.057 219.755C403.973 217.231 403.022 215.073 404.119 211.89C404.96 209.439 406.459 207.244 407.373 204.829C408.251 202.561 408.47 200.22 407.52 197.915C406.532 195.5 404.704 193.635 403.534 191.33C400.244 184.745 404.668 177.355 408.946 172.38C409.421 171.831 408.653 171.063 408.178 171.575Z" fill="#F2F2F2"/>
<path d="M418.451 210.536C416.55 212.329 415.343 214.67 415.014 217.268C414.612 220.377 415.782 222.536 417.025 225.243C418.561 228.572 415.563 231.572 416.367 234.937C416.806 236.767 417.793 238.157 417.756 240.096C417.683 242.108 416.879 243.937 415.49 245.364C415.014 245.876 415.782 246.644 416.257 246.132C418.122 244.23 419.109 241.632 418.78 238.962C418.597 237.425 417.756 236.108 417.427 234.608C416.952 232.596 418.049 230.767 418.451 228.865C419.146 225.645 416.952 223.743 416.257 220.816C415.416 217.341 416.623 213.682 419.219 211.268C419.767 210.829 419 210.061 418.451 210.536Z" fill="#F2F2F2"/>
<path d="M316.771 108.505C314.687 111.724 312.383 115.529 313.59 119.517C314.175 121.456 315.784 122.26 316.661 123.943C317.502 125.626 316.698 127.602 316.113 129.211C315.272 131.516 314.102 134.333 316.223 136.308C317.063 137.077 318.087 137.516 318.453 138.723C318.745 139.711 318.489 140.881 318.307 141.833C317.941 143.589 317.429 145.345 317.648 147.137C317.722 147.832 318.818 147.832 318.745 147.137C318.416 144.137 320.61 140.772 319.33 137.882C318.599 136.199 316.332 135.723 316.113 133.821C315.93 132.394 316.698 130.821 317.173 129.504C318.087 126.98 318.745 124.455 316.771 122.26C314.943 120.248 313.992 118.309 314.577 115.529C315.053 113.151 316.442 111.029 317.758 109.017C318.124 108.432 317.173 107.883 316.771 108.505Z" fill="#F2F2F2"/>
<path d="M166.463 69.8733C164.305 71.3732 163.94 74.0438 165.439 76.129C166.792 77.9582 164.708 78.7996 165.11 80.519C165.256 81.141 165.768 81.5068 166.06 82.0555C166.792 83.4091 165.951 84.8359 165.256 86.0431C164.89 86.665 165.841 87.2138 166.207 86.5919C166.865 85.4578 167.596 84.1408 167.486 82.7872C167.45 82.1653 167.194 81.7629 166.938 81.2141C166.755 80.8849 166.536 80.7751 166.39 80.3727C166.207 79.6776 166.463 79.5313 166.792 78.8728C167.267 77.9582 167.45 77.1899 166.938 76.2388C166.463 75.3608 165.695 74.8486 165.622 73.7511C165.549 72.5805 166.097 71.4464 167.048 70.7879C167.596 70.422 167.048 69.4709 166.463 69.8733Z" fill="#855EDE"/>
<path d="M114.142 97.3107C113.447 98.0789 113.008 98.9204 112.935 99.9447C112.862 101.115 113.813 102.323 113.301 103.384C112.935 104.152 112.533 104.444 112.606 105.396C112.679 106.383 114.325 109.091 112.826 109.676C112.167 109.932 112.46 110.993 113.118 110.737C114.946 110.042 114.581 108.103 114.069 106.603C113.666 105.432 113.996 104.847 114.507 103.749C114.617 103.493 114.8 103.31 114.836 103.018C114.91 102.432 114.581 102.103 114.361 101.628C113.776 100.347 113.922 99.1033 114.873 98.0789C115.385 97.5668 114.581 96.7619 114.142 97.3107Z" fill="#855EDE"/>
<path d="M393.918 108.688C392.456 108.578 391.395 109.676 391.176 111.103C390.847 113.188 392.565 114.651 393.443 116.334C394.028 117.505 393.809 118.419 393.443 119.553C393.26 120.139 393.041 119.956 393.004 120.614C392.968 121.163 393.187 121.566 393.553 121.968C394.54 123.102 395.344 123.614 395.235 125.297C395.125 126.797 394.43 128.224 393.772 129.504C393.443 130.126 394.394 130.675 394.723 130.053C395.49 128.59 396.258 126.98 396.331 125.297C396.441 123.651 395.783 122.919 394.905 121.675C394.613 121.492 394.503 121.2 394.54 120.797C394.247 120.358 394.32 119.992 394.686 119.663C394.759 119.334 394.942 119.078 395.015 118.712C395.161 117.944 395.015 117.176 394.723 116.407C394.43 115.602 393.918 114.944 393.443 114.249C393.041 113.664 392.565 113.005 392.383 112.31C392.09 111.249 392.383 109.639 393.955 109.749C394.613 109.859 394.613 108.761 393.918 108.688Z" fill="#855EDE"/>
<path d="M280.757 307.665C273.554 308.763 267.485 309.019 263.28 309.019C260.977 342.566 261.306 359.577 264.304 360.053C266.827 360.455 271.251 349.114 277.539 326.03C286.205 323.872 294.907 321.713 303.572 319.555C304.449 311.067 302.475 307.775 300.501 306.275C296.844 303.531 291.726 305.946 280.757 307.665Z" fill="#2E2640" stroke="#2E2640" stroke-width="3" stroke-miterlimit="10"/>
<path d="M245.401 248.217C239.331 253.741 241.415 268.741 250.446 284.435C252.567 284.179 255.894 283.959 259.879 284.288C261.525 284.435 266.68 284.947 279.843 289.739C282.585 290.764 286.387 292.19 290.921 294.129C287.374 295.081 283.828 296.032 280.245 296.983C280.647 301.263 281.378 306.129 282.694 311.324C285.108 320.945 288.691 328.81 291.981 334.7C300.208 332.286 306.935 329.908 311.798 328.152C323.462 323.872 329.641 320.799 335.564 316.665C341.889 312.238 345.216 308.507 346.24 303.824C346.825 301.117 346.496 298.775 346.386 297.934C345.655 293.398 343.132 290.325 340.5 287.398C334.723 280.923 331.834 277.703 327.118 274.118C316.332 265.96 306.497 261.68 295.564 257.034C287.119 253.449 281.488 251.071 273.298 249.095C260.209 246.059 250.373 243.681 245.401 248.217Z" fill="#FF4545"/>
<path d="M270.666 248.912C281.671 252.132 292.384 256.229 302.768 261.168C311.872 265.485 321.012 270.277 328.91 276.606C332.566 279.533 335.966 282.789 338.928 286.447C342.145 290.434 346.314 295.812 346.24 301.19C346.167 306.202 341.414 310.775 337.941 313.921C334.248 317.25 330.043 319.884 325.583 322.042C314.687 327.31 302.621 329.469 291.58 334.408C290.921 334.7 291.506 335.651 292.128 335.359C302.731 330.603 314.285 328.445 324.851 323.579C329.312 321.53 333.59 319.006 337.392 315.823C340.939 312.86 344.961 308.946 346.679 304.556C348.544 299.8 346.021 294.898 343.498 290.947C340.756 286.63 337.429 282.715 333.663 279.24C326.204 272.326 317.32 267.204 308.289 262.668C296.333 256.631 283.828 251.656 270.958 247.888C270.264 247.669 269.971 248.693 270.666 248.912Z" fill="#FF4545"/>
<path d="M309.312 288.605C304.449 289.996 299.55 291.386 294.687 292.776C289.898 294.129 284.998 295.337 280.318 297.02C279.66 297.276 279.953 298.336 280.611 298.08C285.291 296.361 290.19 295.19 294.98 293.837C299.843 292.447 304.742 291.056 309.605 289.666C310.263 289.483 309.97 288.422 309.312 288.605Z" fill="#FF4545"/>
<path d="M279.879 297.093C281.085 310.372 284.778 323.359 291.14 335.103C291.469 335.725 292.42 335.176 292.091 334.554C285.839 322.994 282.182 310.189 280.976 297.129C280.939 296.397 279.842 296.397 279.879 297.093Z" fill="#FF4545"/>
<path d="M291.067 294.129C278.38 286.849 263.975 283.045 249.313 283.63C248.618 283.666 248.618 284.764 249.313 284.727C263.755 284.105 277.978 287.874 290.482 295.08C291.141 295.41 291.689 294.459 291.067 294.129Z" fill="#FF4545"/>
<path opacity="0.11" d="M248.582 261.351C251.982 262.119 256.955 263.399 262.841 265.338C267.192 266.765 275.419 269.655 294.322 279.203C300.684 282.423 309.056 286.776 318.745 292.227C306.424 297.678 294.102 303.129 281.781 308.543C281.123 304.775 280.428 301.043 279.77 297.275C282.951 296.251 286.132 295.263 289.313 294.239C284.45 291.568 277.576 288.422 268.947 286.447C261.818 284.8 255.529 284.398 250.593 284.435C249.898 276.716 249.24 269.033 248.582 261.351Z" fill="#5E586B"/>
<path opacity="0.11" d="M250.556 284.289C256.369 283.264 265.802 282.313 276.99 284.581C286.643 286.52 294.028 290.142 298.818 292.959C292.785 296.398 286.789 299.8 280.756 303.239C280.354 301.227 279.988 299.178 279.586 297.166C282.804 296.142 286.021 295.154 289.275 294.129C284.998 291.825 279.55 289.374 272.968 287.471C264.157 284.947 256.369 284.289 250.556 284.289Z" fill="#5E586B"/>
<path d="M203.062 319.482C208.509 321.384 213.957 323.286 219.368 325.189C220.502 348.712 222.147 360.528 224.268 360.601C226.864 360.711 230.191 343.736 234.286 309.641C225.621 307.555 216.992 305.434 208.327 303.348C206.608 308.726 204.853 314.104 203.062 319.482Z" fill="#2E2640" stroke="#2E2640" stroke-width="3" stroke-miterlimit="10"/>
<path d="M250.52 284.325C250.191 273.826 248.984 265.119 247.814 258.753C245.364 245.327 243.244 243.205 241.379 242.327C237.321 240.462 233.189 244.047 222.879 248.766C214.433 252.644 215.529 250.998 201.051 256.449C190.448 260.436 177.651 265.924 164.049 273.899C161.124 275.618 154.251 279.752 147.633 287.215C141.417 294.203 140.979 297.897 140.979 299.69C140.979 301.519 141.417 305.617 147.414 311.763C154.47 318.969 162.441 322.079 185.439 329.432C191.764 331.444 197.541 333.274 202.696 334.847C205.475 329.542 207.595 324.933 209.131 321.347C213.445 311.25 214.359 306.495 214.725 304.08C215.127 301.409 215.31 299.178 215.347 297.641C211.617 296.654 207.851 295.702 204.122 294.715C208.363 292.3 213.628 289.813 219.917 287.837C232.275 283.996 243.134 283.776 250.52 284.325Z" fill="#FF4545"/>
<path d="M205.219 295.007C206.827 295.373 208.473 295.739 210.081 296.105C211.69 296.471 213.518 296.654 214.871 297.678C215.419 298.117 215.968 297.166 215.419 296.727C214.14 295.739 212.568 295.52 211.032 295.19C209.204 294.788 207.339 294.349 205.511 293.946C204.816 293.8 204.524 294.861 205.219 295.007Z" fill="#FF4545"/>
<path d="M225.804 247.961C209.789 252.168 194.214 257.875 179.223 264.936C171.326 268.667 163.684 273.204 156.774 278.545C149.096 284.471 135.348 296.727 142.734 307.482C146.134 312.421 151.289 316.079 156.408 319.043C160.576 321.494 165 323.542 169.497 325.262C172.13 326.25 174.872 326.981 177.578 327.823C185.804 330.31 194.031 332.908 202.221 335.542C202.879 335.761 203.171 334.7 202.513 334.481C195.749 332.286 188.985 330.127 182.185 328.079C178.638 326.981 175.018 326.067 171.508 324.823C162.88 321.86 153.995 317.396 147.377 311.104C145.22 309.055 142.99 306.641 142.185 303.751C141.161 300.166 142.441 296.581 144.233 293.508C147.121 288.532 151.399 284.398 155.823 280.777C162.916 274.996 170.923 270.204 179.186 266.253C194.25 259.046 210.009 253.302 226.169 249.095C226.791 248.839 226.498 247.778 225.804 247.961Z" fill="#FF4545"/>
<path d="M182.441 289.776C187.888 291.166 193.373 292.556 198.821 293.91C204.195 295.263 209.68 296.434 214.945 298.19C215.603 298.41 215.895 297.349 215.237 297.129C209.972 295.41 204.488 294.239 199.113 292.849C193.665 291.459 188.181 290.069 182.733 288.715C182.038 288.569 181.746 289.63 182.441 289.776Z" fill="#FF4545"/>
<path d="M214.615 297.239C213.263 310.482 209.058 323.323 202.148 334.664C201.782 335.286 202.733 335.834 203.098 335.212C210.118 323.652 214.36 310.628 215.712 297.202C215.785 296.507 214.689 296.544 214.615 297.239Z" fill="#FF4545"/>
<path d="M203.793 295.19C218.088 287.874 233.993 284.252 250.044 284.837C250.739 284.874 250.739 283.776 250.044 283.74C233.81 283.118 217.686 286.813 203.244 294.239C202.623 294.568 203.171 295.52 203.793 295.19Z" fill="#FF4545"/>
<path opacity="0.13" d="M242.878 264.35C227.157 271.996 216.809 277.374 212.166 279.606C199.954 285.386 188.035 290.69 176.444 295.593C185.292 294.605 193.921 298.702 198.418 306.092C203.501 314.433 202.44 325.481 195.676 333.091C198.016 333.932 200.356 334.773 202.66 335.578C204.634 332.432 206.608 328.847 208.4 324.823C213.153 314.25 215.091 304.446 215.895 296.836C212.568 295.739 209.241 294.678 205.914 293.581C208.912 292.264 212.166 290.983 215.639 289.849C228.802 285.532 240.904 284.508 250.557 284.654C250.447 282.02 250.301 279.35 250.118 276.606C249.752 271.374 249.204 266.363 248.582 261.607C247.266 262.229 245.292 263.216 242.878 264.35Z" fill="#5E586B"/>
<path opacity="0.15" d="M249.276 283.703C249.24 283.228 239.843 282.386 228.472 283.996C215.602 285.825 205.548 290.032 199.003 293.398C202.33 295.885 205.657 298.41 208.984 300.897C207.193 311.836 205.438 322.774 203.646 333.713C207.339 327.64 211.507 319.152 213.92 308.433C214.871 304.153 215.383 300.202 215.639 296.58C214.652 296.288 213.628 295.995 212.604 295.702C210.228 295.044 207.924 294.459 205.657 293.983C207.449 293.178 209.972 292.081 213.043 290.947C232.896 283.557 249.276 284.288 249.276 283.703Z" fill="#5E586B"/>
<path d="M277.21 162.978C279.075 162.356 281.89 165.246 283.572 166.929C286.278 169.673 287.63 172.453 288.033 173.295C293.005 183.611 292.128 179.514 296.332 189.099C301.488 200.915 304.998 212.073 304.998 212.073C306.716 217.524 307.776 221.585 311.104 226.596C314.869 232.23 317.977 233.73 319.257 234.242C323.498 235.998 327.52 235.23 329.312 234.755C331.249 232.852 332.749 231.206 333.772 230.035C335.856 227.657 336.734 226.377 338.379 226.194C338.745 226.157 340.427 225.975 341.304 226.962C341.706 227.401 341.779 227.877 342.182 227.987C342.694 228.133 343.205 227.548 343.827 226.962C344.083 226.706 345.765 225.133 347.52 224.401C348.434 223.999 350.189 223.487 350.701 224.145C351.213 224.804 350.079 226.194 350.591 226.706C351.103 227.218 352.346 226.048 353.662 226.596C354.394 226.926 355.015 227.731 355.052 228.499C355.125 229.45 354.32 229.669 354.174 230.913C354.028 231.938 354.503 232.121 354.43 232.962C354.284 234.242 353.114 234.425 351.505 236.291C350.591 237.352 350.847 237.425 349.202 239.876C348.58 240.791 347.776 241.998 347.154 242.693C344.741 245.4 340.646 245.62 338.489 245.766C334.321 245.986 331.03 244.742 329.165 243.864C327.922 244.742 326.021 245.839 323.571 246.681C317.246 248.766 311.689 247.303 309.422 246.681C300.391 244.156 295.089 237.315 291.579 232.633C286.351 225.682 284.449 219.646 281.013 208.671C279.952 205.342 276.771 194.769 275.528 180.611C275.016 174.173 274.175 164.002 277.21 162.978Z" fill="#F9F9F9"/>
<path d="M278.234 164.295C281.452 165.356 283.682 167.953 285.547 170.697C287.485 173.514 289.203 176.477 290.848 179.514C294.176 185.733 296.954 192.208 299.55 198.756C302.183 205.341 304.596 212 307.045 218.621C309.02 223.889 311.396 229.486 315.967 232.998C320.208 236.254 326.241 237.608 330.994 234.645C331.579 234.279 331.031 233.328 330.446 233.694C325.4 236.84 318.892 234.645 314.98 230.657C310.519 226.048 308.618 219.646 306.461 213.792C301.89 201.281 297.21 188.55 290.666 176.88C287.814 171.795 284.45 165.21 278.527 163.234C277.869 163.015 277.576 164.075 278.234 164.295Z" fill="#2E2640"/>
<path d="M277.869 199.744C281.123 211.012 283.865 222.792 290.556 232.596C296.077 240.718 304.267 247.193 314.322 247.998C319.769 248.437 325.29 247.12 329.678 243.827C330.226 243.425 329.678 242.437 329.129 242.876C324.011 246.754 317.393 247.742 311.177 246.461C305.035 245.181 299.733 241.632 295.528 237.096C285.986 226.743 282.805 212.622 279.002 199.488C278.746 198.793 277.686 199.086 277.869 199.744Z" fill="#2E2640"/>
<path d="M331.103 234.791C332.639 232.633 334.065 230.145 335.93 228.279C337.027 227.182 338.818 226.084 340.39 226.962C341.743 227.731 341.853 229.487 341.048 230.657C340.646 231.243 341.597 231.791 341.999 231.206C343.717 228.755 341.926 225.462 338.928 225.609C337.136 225.718 335.674 226.853 334.577 228.206C333.005 230.108 331.652 232.23 330.189 234.242C329.751 234.791 330.701 235.34 331.103 234.791Z" fill="#2E2640"/>
<path d="M336.186 229.999C335.381 231.608 336.368 233.474 338.16 233.767C340.317 234.096 341.889 232.267 342.255 230.328C342.401 229.633 341.341 229.34 341.195 230.035C340.975 231.206 340.354 232.413 339.074 232.669C337.867 232.925 336.515 231.865 337.136 230.584C337.429 229.926 336.478 229.377 336.186 229.999Z" fill="#2E2640"/>
<path d="M328.946 244.156C333.151 244.998 337.136 246.937 341.487 246.022C344.997 245.291 347.996 243.132 349.933 240.169C350.336 239.584 349.385 239.035 348.983 239.62C347.081 242.51 344.083 244.522 340.646 245.071C336.698 245.693 333.005 243.864 329.202 243.096C328.544 242.986 328.252 244.047 328.946 244.156Z" fill="#2E2640"/>
<path d="M339.294 232.669C338.124 233.364 338.27 234.974 339.257 235.815C340.098 236.511 341.231 236.401 342.255 236.401C344.01 236.364 345.473 236.657 347.008 237.535C347.63 237.864 348.178 236.95 347.557 236.584C346.423 235.925 345.217 235.486 343.9 235.34C343.279 235.267 342.657 235.303 341.999 235.303C341.597 235.303 341.195 235.34 340.829 235.267C340.39 235.157 338.965 234.169 339.842 233.657C340.427 233.255 339.879 232.303 339.294 232.669Z" fill="#2E2640"/>
<path d="M340.025 233.145C342.767 231.572 346.131 231.901 348.471 234.059C348.983 234.535 349.751 233.767 349.239 233.291C346.533 230.804 342.657 230.365 339.477 232.194C338.855 232.56 339.403 233.511 340.025 233.145Z" fill="#2E2640"/>
<path d="M342.402 228.682C343.608 227.804 344.778 226.962 345.985 226.084C346.497 225.718 346.972 225.353 347.52 225.023C347.886 224.804 348.252 224.584 348.654 224.438C350.372 223.853 350.774 224.694 349.824 226.962C349.166 227.182 349.458 228.243 350.116 228.023C352.091 227.328 352.785 224.658 350.738 223.523C349.604 222.865 348.252 223.341 347.228 223.926C345.363 224.987 343.645 226.487 341.89 227.731C341.268 228.17 341.817 229.121 342.402 228.682Z" fill="#2E2640"/>
<path d="M344.742 231.608C346.204 230.694 347.667 229.743 349.129 228.828C349.787 228.426 350.446 227.95 351.177 227.621C351.725 227.328 352.31 227.218 352.932 227.218C354.211 227.218 354.687 227.987 354.358 229.486C353.919 230.035 354.687 230.803 355.126 230.255C356.515 228.499 355.272 226.34 353.151 226.157C351.762 226.011 350.519 226.706 349.385 227.401C347.63 228.462 345.912 229.596 344.193 230.694C343.572 231.023 344.12 231.974 344.742 231.608Z" fill="#2E2640"/>
<path d="M349.019 233.328C350.006 232.779 350.993 232.267 351.98 231.791C352.309 231.608 353.406 230.95 353.735 231.023C354.649 231.206 354.028 232.121 353.808 232.487C353.443 233.072 354.393 233.657 354.759 233.035C355.344 232.084 355.856 230.218 354.284 229.926C353.443 229.743 352.529 230.328 351.797 230.694C350.664 231.243 349.531 231.791 348.434 232.413C347.849 232.743 348.434 233.694 349.019 233.328Z" fill="#2E2640"/>
<path d="M347.484 233.072C350.117 234.535 350.628 237.791 348.544 239.986C348.069 240.498 348.837 241.266 349.312 240.754C351.872 238.084 351.287 233.913 348.032 232.121C347.447 231.791 346.862 232.742 347.484 233.072Z" fill="#2E2640"/>
<path d="M354.211 232.669C353.041 234.169 351.688 235.486 350.189 236.584C349.641 236.986 350.152 237.937 350.737 237.535C352.346 236.364 353.772 235.011 355.015 233.437C355.417 232.889 354.65 232.121 354.211 232.669Z" fill="#2E2640"/>
<path d="M336.442 236.949C338.745 237.132 340.903 237.864 342.84 239.144C343.425 239.547 343.974 238.596 343.389 238.193C341.268 236.84 338.965 236.071 336.442 235.852C335.747 235.815 335.747 236.913 336.442 236.949Z" fill="#2E2640"/>
<path opacity="0.09" d="M273.518 171.831C274.176 176.514 275.236 183.099 276.808 191.001C277.832 196.123 278.563 199.891 279.916 204.903C281.964 212.512 283.645 218.914 287.594 226.34C290.19 231.206 291.945 234.535 295.601 238.12C298.197 240.645 304.998 247.303 315.235 247.449C321.488 247.522 326.424 245.144 329.312 243.352C331.03 244.303 333.992 245.583 337.831 245.656C339.623 245.693 342.986 245.73 346.167 243.535C347.264 242.766 350.189 240.791 350.409 237.462C350.445 236.95 350.591 234.169 348.617 232.706C346.423 231.096 342.84 232.047 342.548 233.182C342.292 234.242 344.924 235.12 344.851 236.62C344.741 238.523 340.427 239.693 339.623 239.913C313.883 246.864 300.025 235.34 300.025 235.34C295.821 231.828 293.59 228.023 288.399 215.036C284.121 204.354 278.746 189.757 273.518 171.831Z" fill="#5E586B"/>
<path d="M169.059 241.998C170.741 243.242 175.201 246.132 181.307 246.095C187.011 246.059 191.033 243.461 193.3 241.998C197.066 239.584 199.223 236.913 201.197 234.352C207.34 226.56 209.789 218.438 211.544 212.548C213.117 207.28 212.495 207.573 213.994 203C216.809 194.44 219.223 192.501 221.636 186.391C225.621 176.294 225.877 164.258 222.733 162.941C221.27 162.356 219.113 164.076 214.835 167.588C213.555 168.648 211.289 170.514 208.912 173.404C207.011 175.746 203.684 180.355 199.991 191.367C196.993 200.366 197.651 201.83 194.104 211.78C191.91 217.963 190.521 220.487 188.839 222.792C186.938 225.353 183.794 229.523 178.09 231.718C173.739 233.401 169.827 233.181 167.669 232.889C167.377 231.425 166.39 227.401 162.989 225.426C162.149 224.914 160.101 223.743 158.639 224.621C157.798 225.133 157.505 226.084 157.395 226.596C155.787 224.328 154.032 223.34 153.044 222.902C152.094 222.499 150.156 221.621 149.352 222.426C148.62 223.158 149.279 224.84 149.352 225.06C148.328 224.511 147.158 224.584 146.317 225.206C145.695 225.682 145.001 226.633 145.257 227.657C145.439 228.352 145.988 228.791 146.171 228.901C145.951 229.523 145.769 230.474 146.098 231.462C146.28 231.974 146.5 232.303 147.816 233.767C149.498 235.669 149.534 235.596 149.864 236.071C150.778 237.425 150.595 238.157 151.18 239.364C152.204 241.596 154.397 242.657 155.129 242.986C157.469 244.12 159.626 243.827 163.172 243.315C165.439 243.059 167.414 242.547 169.059 241.998Z" fill="#F9F9F9"/>
<path d="M222.623 161.954C217.029 164.771 211.983 168.648 208.071 173.587C204.159 178.526 201.453 184.233 199.406 190.159C197.358 196.159 195.896 202.342 194.323 208.451C192.824 214.378 190.302 220.524 186.353 225.243C181.746 230.767 174.58 232.889 167.596 232.084C166.902 232.011 166.902 233.108 167.596 233.181C173.117 233.803 178.857 232.742 183.428 229.486C188.254 226.048 191.289 220.304 193.446 214.89C195.749 209.146 196.773 202.89 198.455 196.964C200.247 190.562 202.44 184.196 205.95 178.526C210.118 171.758 216.078 166.49 223.171 162.941C223.829 162.576 223.244 161.624 222.623 161.954Z" fill="#2E2640"/>
<path d="M214.762 197.878C211.435 210.536 208.729 224.182 200.393 234.681C196.773 239.218 192.057 243.095 186.353 244.632C180.43 246.242 174.031 245.327 169.242 241.376C168.693 240.937 167.925 241.705 168.474 242.144C175.75 248.144 186.134 247.522 193.739 242.4C202.075 236.803 207.011 227.365 210.228 218.109C212.495 211.597 214.067 204.829 215.822 198.171C216.005 197.476 214.945 197.183 214.762 197.878Z" fill="#2E2640"/>
<path d="M168.181 232.633C166.902 230.657 165.695 228.572 164.269 226.706C163.282 225.389 161.966 224.145 160.211 223.999C157.176 223.816 155.86 227.291 157.322 229.596C157.688 230.181 158.639 229.633 158.273 229.047C157.578 227.95 157.615 226.121 158.858 225.352C160.613 224.255 162.405 226.048 163.355 227.291C164.781 229.157 165.951 231.206 167.231 233.181C167.596 233.767 168.547 233.218 168.181 232.633Z" fill="#2E2640"/>
<path d="M161.747 228.974C162.332 230.218 161.125 231.462 159.845 231.023C158.785 230.657 158.31 229.45 158.127 228.426C158.017 227.73 156.957 228.023 157.067 228.718C157.396 230.547 158.712 232.45 160.796 232.194C162.587 231.974 163.392 229.962 162.697 228.426C162.405 227.767 161.454 228.316 161.747 228.974Z" fill="#2E2640"/>
<path d="M168.949 241.522C165.585 242.254 162.295 244.047 158.785 243.498C155.457 242.986 152.679 240.864 150.997 238.047C150.631 237.425 149.68 238.01 150.046 238.596C151.765 241.486 154.47 243.681 157.797 244.449C161.819 245.364 165.402 243.425 169.241 242.583C169.936 242.437 169.644 241.376 168.949 241.522Z" fill="#2E2640"/>
<path d="M159.296 232.011C159.552 232.194 159.589 232.56 159.479 232.816C159.26 233.547 158.455 233.62 157.797 233.694C157.103 233.73 156.408 233.62 155.677 233.694C154.434 233.84 153.3 234.279 152.24 234.937C151.655 235.303 152.203 236.254 152.788 235.889C154.141 235.047 155.494 234.718 157.103 234.755C158.053 234.791 159.04 234.864 159.808 234.206C160.795 233.401 160.905 231.755 159.808 231.06C159.26 230.694 158.711 231.645 159.296 232.011Z" fill="#2E2640"/>
<path d="M159.699 230.621C156.81 228.755 153.154 229.267 150.741 231.718C150.229 232.23 151.034 232.999 151.509 232.486C153.593 230.401 156.628 229.962 159.15 231.572C159.735 231.938 160.284 230.986 159.699 230.621Z" fill="#2E2640"/>
<path d="M157.651 226.231C156.152 225.023 154.69 223.743 153.117 222.645C152.167 221.987 150.96 221.328 149.79 221.767C147.487 222.609 147.962 225.682 149.973 226.45C150.631 226.706 150.924 225.645 150.266 225.389C148.913 223.779 149.022 223.048 150.595 223.194C151.18 222.901 151.691 222.938 152.13 223.304C152.752 223.597 153.337 224.218 153.885 224.621C154.872 225.426 155.896 226.231 156.883 227.035C157.395 227.438 158.2 226.67 157.651 226.231Z" fill="#2E2640"/>
<path d="M155.384 229.084C153.812 227.987 152.24 226.852 150.668 225.792C149.644 225.096 148.511 224.438 147.268 224.548C145.293 224.731 144.087 226.889 145.293 228.572C145.695 229.121 146.646 228.572 146.244 228.023C145.439 226.56 146.098 225.792 148.145 225.718C148.62 225.865 149.059 226.048 149.461 226.304C149.973 226.596 150.448 226.962 150.924 227.291C152.24 228.206 153.556 229.121 154.873 230.035C155.421 230.438 155.969 229.486 155.384 229.084Z" fill="#2E2640"/>
<path d="M151.472 230.804C150.485 230.182 149.461 229.596 148.401 229.084C147.706 228.718 146.756 228.06 145.915 228.352C144.599 228.828 145.11 230.584 145.622 231.462C145.951 232.084 146.902 231.535 146.573 230.913C146.463 230.694 146.061 230.035 146.171 229.779C146.317 229.413 146.902 229.633 147.158 229.706C147.45 229.779 147.743 229.999 148.035 230.145C149.023 230.657 149.973 231.206 150.924 231.791C151.509 232.121 152.094 231.169 151.472 230.804Z" fill="#2E2640"/>
<path d="M151.838 230.547C148.767 232.45 148.365 236.51 150.668 239.181C151.143 239.73 151.911 238.925 151.436 238.413C149.608 236.291 149.937 232.998 152.386 231.499C152.971 231.133 152.423 230.182 151.838 230.547Z" fill="#2E2640"/>
<path d="M145.403 231.755C146.5 233.291 147.78 234.681 149.279 235.888C149.827 236.327 150.595 235.559 150.046 235.12C148.621 233.986 147.414 232.706 146.354 231.206C145.915 230.62 144.964 231.169 145.403 231.755Z" fill="#2E2640"/>
<path d="M162.404 234.279C160.101 234.498 157.944 235.267 156.043 236.62C155.458 237.023 156.006 237.974 156.591 237.571C158.346 236.328 160.247 235.559 162.404 235.376C163.136 235.303 163.136 234.206 162.404 234.279Z" fill="#2E2640"/>
<path opacity="0.17" d="M220.795 176.514C216.224 187.635 212.714 196.598 210.484 202.452C205.256 216.061 203.793 220.816 198.857 227.072C194.653 232.377 189.68 238.998 181.271 240.279C176.006 241.083 171.545 239.474 168.949 238.303C168.291 238.815 163.282 242.401 158.419 240.498C155.714 239.437 153.044 236.694 153.593 235.011C154.141 233.291 157.798 233.401 157.761 232.596C157.724 231.938 155.202 231.023 152.935 231.718C152.606 231.828 150.375 232.56 149.644 234.572C148.694 237.242 151.18 239.986 151.838 240.718C155.202 244.449 160.357 244.266 161.271 244.23C164.964 244.12 167.669 242.474 168.949 241.596C170.594 242.986 173.483 245.034 177.505 245.766C184.927 247.156 190.923 242.986 194.214 240.937C203.61 234.974 207.157 225.462 210.045 218.292C211.435 214.817 212.056 212.548 215.457 198.683C217.577 189.903 219.405 182.367 220.795 176.514Z" fill="#5E586B"/>
<path opacity="0.17" d="M146.975 225.316C148.218 225.097 149.827 228.389 150.924 231.023C150.375 233.84 149.68 234.462 149.169 234.535C147.706 234.791 145.22 231.206 145.659 227.95C145.695 227.694 145.988 225.499 146.975 225.316Z" fill="#5E586B"/>
<path d="M222.22 162.21C215.31 170.148 215.164 179.953 215.127 197.147C215.091 217.963 218.82 235.486 222.805 248.547C228.802 250.339 237.503 252.241 248.07 252.241C258.49 252.241 267.083 250.339 273.042 248.547C274.395 242.949 276.187 234.718 277.576 224.694C282.366 190.708 285.51 168.356 273.042 157.381C260.465 146.333 234.03 148.637 222.22 162.21Z" fill="#F9F9F9" stroke="#2E2640" stroke-width="3" stroke-miterlimit="10"/>
<path opacity="0.1" d="M256.48 151.052C258.052 154.271 260.136 159.247 261.452 165.576C262.659 171.356 264.524 184.197 253.957 216.17C250.959 225.28 246.425 237.498 239.661 251.546C242.55 251.839 245.657 252.022 248.948 251.985C258.345 251.949 266.498 250.412 272.97 248.583C275.748 234.974 277.723 223.377 279.076 214.561C280.757 203.732 281.927 194.586 281.562 183.026C281.123 168.392 278.637 164.149 277.247 162.173C271.288 153.466 260.538 151.564 256.48 151.052Z" fill="#5E586B"/>
<path opacity="0.13" d="M280.976 172.819C279.331 177.794 276.954 185.477 274.614 195.062C271.689 207.025 271.251 212.036 269.642 218.438C267.485 226.779 262.987 238.559 252.421 252.022C255.894 252.132 260.538 251.876 265.803 250.449C268.582 249.681 271.031 248.693 273.042 247.742C274.907 237.572 276.552 228.023 278.015 219.17C280.611 203.659 281.525 197.257 281.634 188.769C281.744 182.075 281.342 176.587 280.976 172.819Z" fill="#5E586B"/>
<path d="M240.246 142.418C239.04 144.064 239.625 145.564 239.369 151.71C239.186 155.735 238.784 158.954 238.491 161.003C239.734 161.881 243.244 164.112 248.217 164.112C254.067 164.112 257.979 161.039 259.039 160.125C258.564 158.808 257.979 156.832 257.504 154.381C256.151 147.394 257.54 145.235 255.968 142.857C253.153 138.65 243.135 138.467 240.246 142.418Z" fill="#F9F9F9" stroke="#2E2640" stroke-width="3" stroke-miterlimit="10"/>
<path d="M225.438 122.7C225.292 127.895 226.462 131.772 227.413 134.882C228.839 139.455 230.411 144.577 234.944 149.259C238.893 153.357 243.5 155.478 247.12 156.576C249.899 155.442 254.469 153.137 258.637 148.601C263.171 143.662 264.889 138.65 266.169 134.882C267.266 131.626 269.13 125.736 268.363 118.054C267.814 112.676 267.229 106.859 262.622 102.359C255.822 95.7378 245.877 97.4573 244.487 97.7133C234.835 99.5059 229.972 107.152 228.802 109.237C225.658 114.578 225.511 119.81 225.438 122.7Z" fill="#F9F9F9" stroke="#2E2640" stroke-width="3" stroke-miterlimit="10"/>
<path d="M244.634 126.687C244.414 131.37 244.853 136.016 245.987 140.552C246.096 140.918 246.645 141.101 246.901 140.808C247.742 139.821 248.29 138.76 248.546 137.479C248.692 136.784 247.632 136.492 247.486 137.187C247.266 138.321 246.864 139.162 246.133 140.04C246.425 140.113 246.754 140.186 247.047 140.296C245.95 135.833 245.548 131.297 245.731 126.724C245.731 125.992 244.634 125.992 244.634 126.687Z" fill="#2E2640"/>
<path d="M252.312 128.297C254.908 131.041 260.136 131.809 261.526 127.382C261.745 126.724 260.685 126.431 260.465 127.09C259.332 130.711 255.091 129.577 253.116 127.492C252.568 127.017 251.8 127.785 252.312 128.297Z" fill="#2E2640"/>
<path d="M233.994 135.394C233.994 135.284 233.957 135.431 233.921 135.431C233.884 135.467 233.811 135.467 233.738 135.467C233.628 135.248 233.482 135.028 233.372 134.809C233.409 134.772 233.409 134.736 233.445 134.699C233.153 134.772 232.97 135.065 233.08 135.358C233.153 135.65 233.482 135.833 233.738 135.723C234.067 135.614 234.286 135.394 234.433 135.065C234.542 134.809 234.323 134.443 234.067 134.406C233.592 134.297 233.043 134.553 232.934 135.065C232.897 135.358 233.007 135.687 233.299 135.723C233.592 135.87 233.957 135.723 233.994 135.394Z" fill="#2E2640"/>
<path d="M239.405 133.968C239.332 134.516 239.186 134.553 238.967 134.077C238.565 133.748 238.638 133.602 239.186 133.675C238.93 133.529 238.601 133.602 238.418 133.858C238.272 134.114 238.345 134.48 238.601 134.626C239.223 134.992 239.99 134.187 239.515 133.602C239.04 133.016 238.089 133.529 238.272 134.224C238.345 134.516 238.674 134.699 238.93 134.589C239.332 134.589 239.479 134.26 239.405 133.968Z" fill="#2E2640"/>
<path d="M237.431 137.772C237.431 137.845 237.394 137.919 237.321 137.992C237.394 137.919 237.248 138.028 237.284 137.992C237.175 138.028 237.321 137.955 237.284 137.992C237.211 137.992 237.175 137.992 237.211 137.992C237.248 137.992 237.248 137.992 237.138 137.992C237.102 137.992 237.102 137.955 237.065 137.955C237.102 137.992 237.102 137.955 237.029 137.919C236.882 137.772 236.882 137.553 236.992 137.406C237.138 137.26 237.394 137.333 237.467 137.48C237.321 137.223 236.992 137.15 236.699 137.297C236.444 137.443 236.334 137.809 236.517 138.065C236.736 138.431 237.211 138.54 237.577 138.321C237.943 138.138 238.089 137.662 237.869 137.297C237.431 136.602 236.261 137.004 236.261 137.772C236.261 138.065 236.517 138.321 236.809 138.321C237.175 138.321 237.431 138.101 237.431 137.772Z" fill="#2E2640"/>
<path d="M256.041 133.126C256.297 133.163 256.443 133.309 256.48 133.492C256.516 133.711 256.37 133.858 256.041 133.967C255.931 133.931 255.858 133.931 255.748 133.894C255.566 133.784 255.529 133.638 255.639 133.455C255.821 133.163 256.37 133.272 256.26 133.675C256.333 133.382 256.187 133.053 255.895 133.016C255.602 132.943 255.31 133.089 255.236 133.382C255.09 133.894 255.529 134.443 256.077 134.37C256.553 134.297 256.845 133.821 256.699 133.345C256.626 133.089 256.37 132.87 256.077 132.87C255.858 132.87 255.639 133.016 255.529 133.199C255.31 133.602 255.602 134.26 256.114 134.223C256.406 134.187 256.662 134.004 256.662 133.675C256.589 133.419 256.37 133.089 256.041 133.126Z" fill="#2E2640"/>
<path d="M260.173 133.528C260.209 133.492 260.209 133.528 260.173 133.528C260.136 133.565 260.063 133.638 259.99 133.711C259.77 133.638 259.588 133.565 259.368 133.455C259.368 133.345 259.368 133.272 259.368 133.162C259.368 133.126 259.405 133.126 259.405 133.089C259.478 133.016 259.551 132.943 259.588 132.906C259.807 132.98 259.99 133.053 260.209 133.162C260.209 133.272 260.209 133.345 260.209 133.455V133.419C260.282 133.126 260.136 132.797 259.844 132.76C259.551 132.687 259.259 132.833 259.185 133.126C259.003 133.858 260.099 134.297 260.429 133.565C260.575 133.272 260.429 132.906 260.136 132.76C259.807 132.577 259.441 132.687 259.259 132.98C259.076 133.236 259.222 133.602 259.441 133.748C259.697 133.894 260.026 133.748 260.173 133.528Z" fill="#2E2640"/>
<path d="M258.162 137.15C258.125 137.04 258.162 137.15 258.125 137.187C258.125 137.223 258.016 137.297 258.125 137.223C257.833 137.187 257.54 137.15 257.248 137.114C257.029 136.784 257.431 136.492 257.723 136.638C257.467 136.492 257.138 136.565 256.955 136.821C256.809 137.077 256.882 137.443 257.138 137.589C257.431 137.736 257.796 137.699 258.016 137.443C258.235 137.223 258.308 136.821 258.125 136.528C257.943 136.236 257.504 136.162 257.248 136.419C256.992 136.675 256.882 137.077 256.992 137.406C257.102 137.699 257.358 137.882 257.65 137.772C258.052 137.772 258.272 137.443 258.162 137.15Z" fill="#2E2640"/>
<path d="M242.221 143.589C244.817 146.296 248.948 146.223 251.398 143.333C251.837 142.784 251.069 142.016 250.63 142.565C248.583 144.979 245.219 145.125 242.989 142.821C242.513 142.308 241.746 143.077 242.221 143.589Z" fill="#2E2640"/>
<path d="M235.494 121.419C236.59 120.212 238.126 119.7 239.735 120.029C240.429 120.176 240.722 119.115 240.027 118.968C238.053 118.566 236.079 119.151 234.726 120.651C234.25 121.163 235.018 121.932 235.494 121.419Z" fill="#2E2640"/>
<path d="M252.677 119.188C254.359 119.005 255.895 119.407 257.248 120.395C257.833 120.798 258.381 119.846 257.796 119.444C256.297 118.346 254.505 117.871 252.677 118.09C251.983 118.164 251.983 119.261 252.677 119.188Z" fill="#2E2640"/>
<path d="M233.518 128.626C236.114 131.37 241.343 132.138 242.732 127.712C242.952 127.053 241.891 126.761 241.672 127.419C240.538 131.041 236.297 129.907 234.323 127.821C233.811 127.309 233.007 128.114 233.518 128.626Z" fill="#2E2640"/>
<path d="M245.584 105.652C247.961 108.505 250.813 111.578 254.249 114.688C258.929 118.932 263.5 122.224 267.485 124.712C267.266 128.004 266.571 133.053 264.085 138.723C261.635 144.357 258.381 148.272 256.151 150.649C255.931 152.405 255.858 155.405 257.284 158.405C260.611 165.393 270.191 168.539 277.54 166.161C278.417 165.868 284.596 163.783 286.607 158.222C287.156 156.686 287.448 154.82 286.607 149.881C285.401 142.747 283.28 137.516 282.658 135.906C280.903 131.443 278.637 125.005 276.589 116.59C275.931 113.664 273.225 103.164 263.719 97.0914C261.233 95.4818 255.895 92.0795 249.167 93.1039C246.242 93.5429 243.975 94.6769 242.549 95.5549C239.478 95.811 233.994 96.689 228.729 100.494C216.809 109.054 217.138 124.492 217.175 126.065C216.809 128.004 216.188 130.931 215.091 134.406C212.385 142.894 210.118 143.955 209.607 149.186C209.46 150.503 208.802 157.161 213.19 162.612C214.104 163.746 216.919 167.149 221.709 168.1C228.071 169.38 234.908 165.795 237.723 160.161C239.295 157.015 239.259 153.979 239.113 152.369C238.052 151.418 228.29 142.565 229.46 128.773C230.776 113.078 244.926 105.981 245.584 105.652Z" fill="#855EDE"/>
<path opacity="0.11" d="M259.113 118.932C259.771 121.419 260.502 125.187 260.1 129.724C259.588 135.504 257.541 139.565 255.42 143.735C253.738 147.028 251.106 151.527 246.938 156.247C247.596 156.137 248.363 155.917 249.131 155.625C250.923 154.966 252.276 154.052 253.19 153.283C252.897 156.722 252.605 160.161 252.349 163.6C254.433 162.685 256.517 161.807 258.601 160.893C258.162 157.234 257.687 153.613 257.248 149.954C258.126 148.857 259.369 147.247 260.685 145.162C262.513 142.272 265.109 138.101 266.462 132.285C266.901 130.419 267.339 127.675 267.303 124.309C264.597 122.553 261.855 120.724 259.113 118.932Z" fill="#5E586B"/>
<path opacity="0.16" d="M267.339 124.968C267.047 124.895 266.242 128.663 263.793 134.297C263.793 134.297 261.965 138.467 259.88 142.016C257.943 145.308 254.104 150.832 246.864 156.612C247.669 156.978 248.51 157.344 249.314 157.71C251.691 157.454 254.067 157.234 256.444 156.978C256.334 154.966 256.188 152.954 256.078 150.979C258.93 148.052 262.842 143.26 265.292 136.382C267.266 130.638 267.705 125.041 267.339 124.968Z" fill="#5E586B"/>
<path opacity="0.29" d="M212.605 141.174C212.532 142.382 212.605 144.467 213.592 146.698C215.018 149.881 218.345 153.357 221.928 153.32C226.279 153.283 231.106 148.015 230.886 140.552C231.581 142.308 232.641 144.43 234.213 146.698C236.005 149.296 237.943 151.235 239.478 152.588C239.515 153.796 239.405 155.661 238.747 157.747C238.382 158.917 237.467 161.295 235.42 163.527C234.542 164.478 231.691 167.551 227.084 168.319C220.393 169.417 215.347 164.771 214.433 163.893C208.437 158.149 209.461 150.028 209.643 148.784C210.155 145.235 211.618 142.638 212.605 141.174Z" fill="#5E586B"/>
<path opacity="0.12" d="M267.595 124.822C267.887 126.614 268.29 129.468 268.582 133.053C269.204 140.735 268.582 142.784 269.825 146.698C270.008 147.32 272.823 155.954 276.955 156.027C280.172 156.1 283.756 151.052 285.182 143.625C286.315 147.32 286.79 150.466 287.01 152.698C287.375 156.32 287.046 157.527 286.9 158.112C285.876 161.441 283.171 163.271 281.745 164.258C276.699 167.697 271.251 167.185 270.447 167.075C269.167 166.929 263.244 166.161 259.295 161.185C258.674 160.417 256.699 157.82 256.114 153.942C255.932 152.661 255.932 151.527 256.005 150.759C258.235 148.564 261.197 145.089 263.61 140.187C266.608 133.967 267.376 128.297 267.595 124.822Z" fill="#5E586B"/>
</svg>
