<svg width="21" height="26" viewBox="0 0 24 24" fill="none" xmlns="http://www.w3.org/2000/svg">
<path d="M15.225 0C15.8732 0 16.4679 0.361125 16.7571 0.932871L17.1429 1.6875H22.2857C23.2339 1.6875 24 2.44318 24 3.375C24 4.30682 23.2339 5.0625 22.2857 5.0625H1.71429C0.767679 5.0625 0 4.30682 0 3.375C0 2.44318 0.767679 1.6875 1.71429 1.6875H6.85714L7.24286 0.932871C7.53214 0.361125 8.12679 0 8.775 0H15.225Z" fill="#FF4545"/>
<path d="M1.71436 5.0625H22.2858L21.1394 24.6164C21.059 25.9559 19.934 27 18.5733 27H5.42686C4.06453 27 2.939 25.9559 2.86025 24.6164L1.71436 5.0625Z" fill="#2E2640"/>
</svg>
