<svg width="48" height="40" viewBox="0 0 48 40" fill="none" xmlns="http://www.w3.org/2000/svg">
<path d="M23.9926 24.7998C28.2983 24.7998 31.7251 21.3078 31.7251 16.9998C31.7251 12.6918 28.2346 9.1998 23.9926 9.1998C19.6868 9.1998 16.2601 12.6918 16.2601 16.9998C16.1926 21.3048 19.6876 24.7998 23.9926 24.7998ZM27.7426 27.1998H20.2576C14.3701 27.1998 9.6001 31.6773 9.6001 37.1973C9.6001 38.3073 10.5526 39.1998 11.7301 39.1998H36.2701C37.4476 39.1998 38.4001 38.3073 38.4001 37.1973C38.4001 31.6773 33.6301 27.1998 27.7426 27.1998Z" fill="white"/>
<path d="M9.6 12.7998C12.9135 12.7998 15.6 10.1133 15.6 6.7998C15.6 3.4863 12.915 0.799805 9.6 0.799805C6.2865 0.799805 3.6 3.4863 3.6 6.7998C3.6 10.1133 6.2865 12.7998 9.6 12.7998ZM38.4 12.7998C41.7135 12.7998 44.4 10.1133 44.4 6.7998C44.4 3.4863 41.715 0.799805 38.4 0.799805C35.0865 0.799805 32.4 3.4863 32.4 6.7998C32.4 10.1133 35.085 12.7998 38.4 12.7998ZM41.3925 15.1998H36.7545C35.7945 15.1998 34.8885 15.4276 34.065 15.8178C34.11 16.2123 34.185 16.5948 34.185 16.9998C34.185 19.5281 33.2265 21.8156 31.698 23.5998H46.6755C47.4075 23.5998 48 22.9698 48 22.1973C48 18.3348 45.045 15.1998 41.3925 15.1998ZM13.9125 15.8073C13.095 15.3573 12.195 15.1998 11.2425 15.1998H6.606C2.958 15.1998 0 18.3348 0 22.1973C0 22.9698 0.591525 23.5998 1.3215 23.5998H16.284C14.7555 21.8156 13.797 19.5281 13.797 16.9998C13.7925 16.5948 13.8675 16.2048 13.9125 15.8073Z" fill="#FF4545"/>
</svg>
