<svg width="48" height="39" viewBox="0 0 48 39" fill="none" xmlns="http://www.w3.org/2000/svg">
<path d="M23.9926 24.1997C28.2983 24.1997 31.7251 20.7077 31.7251 16.3997C31.7251 12.0917 28.2346 8.5997 23.9926 8.5997C19.6868 8.5997 16.2601 12.0917 16.2601 16.3997C16.1926 20.7047 19.6876 24.1997 23.9926 24.1997ZM27.7426 26.5997H20.2576C14.3701 26.5997 9.6001 31.0772 9.6001 36.5972C9.6001 37.7072 10.5526 38.5997 11.7301 38.5997H36.2701C37.4476 38.5997 38.4001 37.7072 38.4001 36.5972C38.4001 31.0772 33.6301 26.5997 27.7426 26.5997Z" fill="#2E2640"/>
<path d="M9.6 12.1997C12.9135 12.1997 15.6 9.51321 15.6 6.19971C15.6 2.88621 12.915 0.199707 9.6 0.199707C6.2865 0.199707 3.6 2.88621 3.6 6.19971C3.6 9.51321 6.2865 12.1997 9.6 12.1997ZM38.4 12.1997C41.7135 12.1997 44.4 9.51321 44.4 6.19971C44.4 2.88621 41.715 0.199707 38.4 0.199707C35.0865 0.199707 32.4 2.88621 32.4 6.19971C32.4 9.51321 35.085 12.1997 38.4 12.1997ZM41.3925 14.5997H36.7545C35.7945 14.5997 34.8885 14.8275 34.065 15.2177C34.11 15.6122 34.185 15.9947 34.185 16.3997C34.185 18.928 33.2265 21.2155 31.698 22.9997H46.6755C47.4075 22.9997 48 22.3697 48 21.5972C48 17.7347 45.045 14.5997 41.3925 14.5997ZM13.9125 15.2072C13.095 14.7572 12.195 14.5997 11.2425 14.5997H6.606C2.958 14.5997 0 17.7347 0 21.5972C0 22.3697 0.591525 22.9997 1.3215 22.9997H16.284C14.7555 21.2155 13.797 18.928 13.797 16.3997C13.7925 15.9947 13.8675 15.6047 13.9125 15.2072Z" fill="#FF4545"/>
</svg>
